<svg xmlns="http://www.w3.org/2000/svg" width="30.769" height="30.001" viewBox="0 0 30.769 30.001"><g transform="translate(0 0)"><path d="M-747.68-1542h-19.872a5.455,5.455,0,0,1-5.449-5.449v-19.1a5.455,5.455,0,0,1,5.449-5.45h19.872a5.455,5.455,0,0,1,5.449,5.45v19.1A5.455,5.455,0,0,1-747.68-1542Zm-2.628-19.269a6.512,6.512,0,0,0-3.244.743,5.314,5.314,0,0,0-2.038,1.987,5.262,5.262,0,0,0-.706,2.7,5.579,5.579,0,0,0,.706,2.923,4.459,4.459,0,0,0,1.936,1.744,6.409,6.409,0,0,0,2.669.578h.087a11.264,11.264,0,0,0,1.974-.18,9.728,9.728,0,0,0,2.09-.616.208.208,0,0,0,.129-.205l-.009-.143c-.011-.182-.023-.387-.043-.6v-.026c-.013-.267-.025-.519-.025-.743v-12.231a.119.119,0,0,0-.108-.092l-.02,0h-2.6c-.086,0-.128.046-.128.141v4.051c-.072-.006-.136-.009-.2-.012s-.138-.007-.2-.013A2.3,2.3,0,0,0-750.307-1561.269Zm-17.975-3.039a.153.153,0,0,0-.128.051c-.025.025-.015.074.025.129l3.885,6.577-3.988,6.538a.181.181,0,0,0-.025.141c0,.036.012.043.031.043l.024,0,.035,0h2.82c.135,0,.243-.01.3-.141.2-.35.4-.717.589-1.072l.005-.007h0l.291-.535c.261-.5.539-1.018.807-1.52l.065-.121.011-.021c.287-.537.582-1.089.847-1.633h.026c.3.555.608,1.1.922,1.667.271.486.587,1.058.872,1.615.135.271.276.543.412.806l0,.005,0,.005c.133.257.27.522.4.786.091.131.238.141.436.141h2.936a.193.193,0,0,1,.037,0l.036,0h.03a.034.034,0,0,0,.038-.027.219.219,0,0,0-.026-.154l-4.1-6.731,3.846-6.346c.026-.025.051-.077.039-.09a.115.115,0,0,0-.116-.092l-.026,0h-2.7a.247.247,0,0,0-.05-.005.258.258,0,0,0-.117.031.219.219,0,0,0-.077.129c-.112.208-.224.421-.336.635l0,.008c-.168.319-.341.648-.518.971l-.025.046-.009.017c-.279.509-.567,1.035-.837,1.552-.253.484-.549,1.058-.833,1.654h-.025c-.285-.583-.566-1.115-.859-1.628-.258-.433-.494-.858-.745-1.308l-.179-.321c-.259-.485-.559-1.061-.82-1.654a.358.358,0,0,0-.129-.115.767.767,0,0,0-.179-.026Zm17.641,11.244a3.366,3.366,0,0,1-1.064-.167,2.2,2.2,0,0,1-.872-.513,2.51,2.51,0,0,1-.577-.91,3.556,3.556,0,0,1-.218-1.32,2.835,2.835,0,0,1,.423-1.628,2.876,2.876,0,0,1,1.09-.949,3.144,3.144,0,0,1,1.449-.333c.14,0,.28.012.423.026a3.084,3.084,0,0,1,.346.064v5.641a1.157,1.157,0,0,1-.378.067q-.041,0-.083,0C-750.28-1553.076-750.454-1553.064-750.641-1553.064Z" transform="translate(773 1572)" fill="#071914"/></g></svg>