<svg xmlns="http://www.w3.org/2000/svg" width="13.556" height="30" viewBox="0 0 13.556 30"><path fill="#071914" d="M23.873,22.948l-.826,1.441-.27,4.7c0,.522-1.658.943-3.7.943s-3.7-.422-3.7-.943l-.34-4.653-.873-1.488A16.127,16.127,0,0,0,23.873,22.948ZM12.388,8.105l.8,7.354a5.323,5.323,0,0,1,2.344-3.235,1.155,1.155,0,0,1,1.1.053,1.45,1.45,0,0,1,.592.691c.07.381-.117.533-.264.533-.176,0-.311-.27-.4-.428-.24-.428-.6-.445-.99-.164a4.009,4.009,0,0,0-1,1.213,6.945,6.945,0,0,0-.7,1.652,2.084,2.084,0,0,0-.035,1.166.306.306,0,0,0,.287.211c.293,0,.721-.387.926-.592a4.451,4.451,0,0,0,.732-.938l.3-.908c.152-.4.58-.328.58,0a7.89,7.89,0,0,1-.586,2.033c-.34,1.143-.445,1.512-.445,1.512-.041.164-.2.439-.369.439a.167.167,0,0,1-.152-.07.765.765,0,0,1-.047-.369c.012-.188.369-1.3.428-1.477-.117.129-.24.258-.375.387a2.221,2.221,0,0,1-1.26.691.715.715,0,0,1-.451-.141l.445,4.664c.117.293,2.3,1,5.168,1s5.057-.715,5.168-1l.639-5.543a4.63,4.63,0,0,1-1.149.867c-.316.135-1.02.223-1.02-.334,0-.3.533-.867.844-1.26a1.187,1.187,0,0,0,.275-.475c0-.17-.352-.129-.686.146a3.366,3.366,0,0,0-.51.568,4.7,4.7,0,0,0-.5.908,13.775,13.775,0,0,0-.533,1.289c-.293.779-.246.691-.3.82a.571.571,0,0,1-.234.264.354.354,0,0,1-.357-.018.249.249,0,0,1-.076-.217.727.727,0,0,1,.018-.158c.088-.357.457-1.061.879-2.01.094-.217.059-.152.047-.135a3.054,3.054,0,0,1-.844.615c-.34.152-.762.152-.85-.24-.006-.023-.006-.047-.012-.07-.691.539-1.424.686-1.172-.475a1.563,1.563,0,0,1-1.313.873.482.482,0,0,1-.5-.3,2.376,2.376,0,0,1,.27-1.395c.1-.264.234-.58.416-.949.094-.2.246-.316.445-.264a.454.454,0,0,1,.094.041c.152.105.094.264.018.422a6.421,6.421,0,0,0-.545,1.219c-.053.193-.117.527.088.527a.678.678,0,0,0,.4-.141,2.506,2.506,0,0,0,.65-.791,4,4,0,0,0,.328-.721,2,2,0,0,1,.105-.281c.064-.146.152-.3.3-.3a.231.231,0,0,1,.188.088.387.387,0,0,1,.023.4c-.117.328-.275.621-.4.979a2.161,2.161,0,0,0-.158.686c0,.2.217.152.4.07a1.809,1.809,0,0,0,.4-.264c.07-.287.053-.223,1.547-4a.385.385,0,0,1,.357-.275.316.316,0,0,1,.188.064.335.335,0,0,1,.059.363c-.041.111-.035.076-.264.615-.3.709-.5,1.219-.773,1.869-.111.27-.451,1.107-.51,1.307-.035.129-.076.34.059.34.316,0,1.131-.768,1.354-1a.119.119,0,0,1,.053-.035c.035-.111.07-.217.1-.322a2.214,2.214,0,0,1,.311-.662.209.209,0,0,1,.158-.094c.164,0,.246.07.246.234a1.971,1.971,0,0,1-.064.363q.123-.132.264-.264c.879-.815,1.506-.4,1.506.012,0,.434-.522,1.037-.809,1.371a2.012,2.012,0,0,0-.293.375c0,.076.053.105.129.105.117,0,.375-.205.469-.275.293-.229.691-.58.973-.826l.867-8.016c-1.787,1-11.579,1.008-13.378.012Zm13.46-.5c0,1.231-13.548,1.231-13.548,0,0-.516,3.035-.932,6.774-.932.527,0,1.043.006,1.541.023l.738-2.854L24.945.066c.082-.082.34-.012.58.205s.387.463.311.545L25.83.822,22.473,4.367l-.586,2.385C24.225,6.9,25.848,7.227,25.848,7.607Zm-4.067.27c0-.047-.053-.088-.146-.123l-.012.047c0,.076-.293.141-.65.141s-.65-.064-.65-.141a.022.022,0,0,1,.006-.018l.012-.041c-.105.035-.176.082-.176.135,0,.123.363.217.8.217S21.781,8,21.781,7.877Z" transform="translate(-12.3 -0.033)"/></svg>