<svg xmlns="http://www.w3.org/2000/svg" width="30" height="30" viewBox="0 0 30 30"><path d="M15,30a15.109,15.109,0,0,1-3.023-.3,14.916,14.916,0,0,1-5.364-2.257,15.043,15.043,0,0,1-5.435-6.6A14.927,14.927,0,0,1,.3,18.023a15.145,15.145,0,0,1,0-6.046A14.917,14.917,0,0,1,2.562,6.613a15.045,15.045,0,0,1,6.6-5.435A14.922,14.922,0,0,1,11.977.3a15.145,15.145,0,0,1,6.046,0,14.917,14.917,0,0,1,5.364,2.257,15.044,15.044,0,0,1,5.435,6.6,14.927,14.927,0,0,1,.874,2.816,15.145,15.145,0,0,1,0,6.046,14.917,14.917,0,0,1-2.257,5.364,15.044,15.044,0,0,1-6.6,5.435,14.929,14.929,0,0,1-2.816.874A15.109,15.109,0,0,1,15,30ZM6.538,17.863A3.077,3.077,0,1,0,9.573,20.94a3.132,3.132,0,0,0-.056-.592l5.429-3.135,5.487,3.168c0,.057-.005.116-.005.174a3.063,3.063,0,1,0,1.232-2.427L16.154,14.95V8.279a3.035,3.035,0,1,0-2.564-.041v6.8L8.016,18.254A3,3,0,0,0,6.538,17.863Z" fill="#191716"/></svg>