<svg xmlns="http://www.w3.org/2000/svg" width="57.763" height="30" viewBox="0 0 57.763 30"><g transform="translate(-8.504 -45.068)"><path d="M8.5,72.4h1.921V64.833l2.962,6.6a1.624,1.624,0,0,0,1.76,1.07,1.624,1.624,0,0,0,1.76-1.07l2.962-6.6V72.4h1.906V64.847a1.157,1.157,0,0,0-.895-1.276c-1.452-.455-2.434-.059-2.874.924l-2.9,6.5-2.815-6.5c-.425-.983-1.422-1.379-2.874-.924A1.154,1.154,0,0,0,8.5,64.847V72.4h0Zm14.87-6.16H25.28v4.165c-.014.234.073.763,1.129.777.528.014,4.121,0,4.15,0V66.226H32.48c.014,0,0,6.76,0,6.79.014,1.672-2.068,2.023-3.021,2.053H23.418v-1.29s6.027.015,6.042,0c1.232-.117,1.085-.733,1.085-.938v-.5H26.483c-1.892-.029-3.094-.851-3.109-1.8,0-.088.044-4.252,0-4.3Zm41.192-4.8a6.6,6.6,0,0,0-2.845.411c-.22.088-.557.088-.6.367a1.987,1.987,0,0,1,.234.469,3.8,3.8,0,0,0,.777.894,10.664,10.664,0,0,0,.924.675c.587.352,1.232.542,1.774.895.338.2.66.469.983.7a1.833,1.833,0,0,0,.455.366V66.2a4.606,4.606,0,0,1-.22-.47l-.44-.44a7.288,7.288,0,0,0-1.54-1.466c-.455-.323-1.481-.777-1.672-1.305-.015-.015-.03-.015-.03-.03a9.844,9.844,0,0,0,1-.235c.5-.131.953-.1,1.466-.234.235-.074.469-.132.7-.205v-.132a10.4,10.4,0,0,0-.733-.865,20.562,20.562,0,0,0-2.405-1.8,14.906,14.906,0,0,0-1.539-.748c-.162-.073-.455-.117-.572-.264a6.859,6.859,0,0,1-.6-1.129q-.645-1.255-1.2-2.552a15.7,15.7,0,0,0-.733-1.672,14.824,14.824,0,0,0-5.69-5.485,7.043,7.043,0,0,0-1.877-.6c-.366-.03-.733-.044-1.1-.074a6.627,6.627,0,0,1-.675-.5c-.836-.528-2.992-1.686-3.608-.161-.4.953.587,1.892.938,2.376a6.85,6.85,0,0,1,.734,1.1c.117.249.131.5.234.763a19.738,19.738,0,0,0,.763,1.98,7.05,7.05,0,0,0,.542.909c.117.161.338.235.366.5a4.189,4.189,0,0,0-.337,1.1,6.465,6.465,0,0,0,.44,4.927c.235.366.777,1.173,1.54.865.66-.279.513-1.1.7-1.848.044-.161.015-.279.1-.4v.029c.191.411.4.807.6,1.2a7.874,7.874,0,0,0,1.907,1.98c.337.264.616.719,1.07.865v-.03H54.36c-.088-.131-.22-.19-.323-.293a8.824,8.824,0,0,1-.777-.88,22.063,22.063,0,0,1-1.642-2.669c-.235-.455-.44-.953-.63-1.408-.074-.176-.074-.44-.235-.543a7.332,7.332,0,0,0-.7,1.012,8.269,8.269,0,0,0-.4,2.2c-.059.029-.044.014-.074.044-.469-.117-.63-.6-.806-1.012a6.455,6.455,0,0,1-.132-3.915c.1-.308.558-1.276.367-1.569-.089-.279-.367-.455-.528-.674a5.232,5.232,0,0,1-.542-.924c-.352-.821-.513-1.73-.895-2.551a7.439,7.439,0,0,0-.733-1.129,7.222,7.222,0,0,1-.806-1.144c-.073-.161-.176-.425-.073-.6a.291.291,0,0,1,.2-.205c.191-.147.734.059.938.132a8.856,8.856,0,0,1,1.437.748c.22.147.44.425.7.5h.294c.469.1,1,.029,1.437.161a8.261,8.261,0,0,1,2.112,1.012,13.045,13.045,0,0,1,4.59,5.015c.176.337.249.645.4,1,.308.719.7,1.452,1.012,2.141a9.358,9.358,0,0,0,1.026,1.98c.235.308,1.115.469,1.511.63a8.368,8.368,0,0,1,1,.411c.513.293,1,.66,1.481,1,.234.163.967.529,1,.837Z" fill="#071914" fill-rule="evenodd"/><path d="M132.339,56.124a2.494,2.494,0,0,0-.6.074v.029h.044a4.707,4.707,0,0,0,.469.6c.1.235.22.469.323.7l.044-.044a.788.788,0,0,0,.294-.733c-.073-.088-.088-.191-.161-.294a2.274,2.274,0,0,0-.411-.338Z" transform="translate(-82.731 -7.422)" fill="#071914" fill-rule="evenodd"/><path d="M85.96,110.165h5.5a4.253,4.253,0,0,0,1.774-.367,1.744,1.744,0,0,0,1.232-1.569v-1.408c0-.542-.469-1.07-1.363-1.408a4.6,4.6,0,0,0-1.643-.279H89.142c-.777,0-1.144-.235-1.232-.748a.707.707,0,0,1-.015-.176v-.865a.6.6,0,0,1,.015-.161c.088-.4.293-.513.968-.572.059,0,.132-.015.191-.015h5.47v-1.276H89.157a5.345,5.345,0,0,0-1.54.161c-1.144.366-1.642.924-1.642,1.907V104.5c0,.865.982,1.6,2.61,1.774.191,0,.366.015.557.015h1.98a.889.889,0,0,1,.2.015c.616.059.865.161,1.056.381a.5.5,0,0,1,.147.352v1.115a.626.626,0,0,1-.279.455,1.374,1.374,0,0,1-.807.264c-.073,0-.131.015-.205.015H85.96Zm20.442-2.23c0,1.32.968,2.053,2.948,2.2.176.015.366.03.542.03h4.986v-1.276h-5.016c-1.129,0-1.554-.279-1.554-.953v-6.613H106.4v6.613Zm-10.72.073v-4.546c0-1.159.806-1.862,2.419-2.082a3,3,0,0,1,.513-.03h3.636a3.254,3.254,0,0,1,.528.03c1.6.22,2.419.924,2.419,2.082v4.546a1.655,1.655,0,0,1-1.144,1.76l1.892,1.7h-2.229l-1.525-1.364-1.54.088H98.615a4.034,4.034,0,0,1-1.129-.161c-1.216-.323-1.8-.968-1.8-2.024Zm2.068-.117a.989.989,0,0,0,.03.205c.117.528.616.821,1.363.821h1.746l-1.6-1.437h2.229l1.393,1.247a.829.829,0,0,0,.5-.792v-4.37a.656.656,0,0,0-.015-.162c-.117-.5-.616-.777-1.349-.777h-2.9c-.851,0-1.393.366-1.393.938v4.326h0Zm18.008,2.273h.279v-1.056h.381v-.22h-1.041v.22h.381v1.056Zm2.141,0h.249v-1.276h-.381l-.337.88-.337-.88h-.4v1.276h.264V109.2l.366.968h.191l.366-.968h.015v.968Z" transform="translate(-51.999 -37.765)" fill="#071914" fill-rule="evenodd"/></g></svg>