<svg xmlns="http://www.w3.org/2000/svg" width="57.041" height="30" viewBox="0 0 57.041 30"><path fill="#071914" d="M28.521,89.2c15.276,0,27.023,6.435,27.023,13.5s-11.756,13.5-27.023,13.5S1.5,109.768,1.5,102.7,13.253,89.2,28.521,89.2m0-1.5C12.772,87.7,0,94.411,0,102.7s12.772,15,28.521,15,28.521-6.711,28.521-15S44.269,87.7,28.521,87.7Zm-9.073,13.8c-.7,3.61-3.191,3.235-6.248,3.235l1.221-6.292c3.387,0,5.686-.365,5.027,3.057ZM8.681,111.1h3.271l.775-3.993c3.663,0,5.936.267,8.039-1.7,2.326-2.139,2.932-5.945,1.275-7.852A5.216,5.216,0,0,0,17.9,96.069H11.6ZM25.232,92.067h3.253l-.775,3.993c2.807,0,5.41-.2,6.667.954,1.319,1.212.686,2.763-.74,10.08h-3.3c1.373-7.077,1.631-7.665,1.132-8.2-.481-.517-1.578-.41-4.225-.41l-1.676,8.61H22.317l2.914-15.027Zm19.777,9.43c-.713,3.663-3.271,3.235-6.248,3.235l1.221-6.292C43.387,98.44,45.668,98.074,45.009,101.5ZM34.242,111.1h3.28l.775-3.993c3.85,0,5.98.223,8.039-1.7,2.326-2.139,2.932-5.945,1.275-7.852a5.216,5.216,0,0,0-4.144-1.488h-6.3Z" transform="translate(0 -87.7)"/></svg>