<svg xmlns="http://www.w3.org/2000/svg" width="39.996" height="30" viewBox="0 0 39.996 30"><path fill="#071914" d="M18.867,38.685C18.848,38.722,18.829,38.752,18.867,38.685Zm15.569-5.437a8.2,8.2,0,0,0-3.625.844A7.7,7.7,0,0,1,30,32.21a5.021,5.021,0,0,1-.069-1.581,13.315,13.315,0,0,1,.475-1.7c-.006-.069-.087-.412-.894-.419s-1.5.156-1.58.369a7.676,7.676,0,0,0-.331,1.194,28.957,28.957,0,0,1-2.443,4.706A4.852,4.852,0,0,1,24.6,33.4a5.021,5.021,0,0,1-.069-1.581,13.315,13.315,0,0,1,.475-1.7c-.006-.069-.087-.412-.893-.419s-1.5.156-1.581.369-.169.712-.331,1.194-2.118,4.831-2.63,5.962c-.262.575-.487,1.037-.65,1.35-.025.05-.044.081-.056.106.019-.031.031-.062.031-.05-.137.269-.219.419-.219.419v.006c-.106.2-.225.381-.281.381a2.592,2.592,0,0,1,.019-1.244c.294-1.512.987-3.862.981-3.943-.006-.044.131-.45-.456-.669a.736.736,0,0,0-.825.137c-.05,0-.087.125-.087.125s.631-2.65-1.212-2.65c-1.15,0-2.75,1.262-3.536,2.406-.494.269-1.562.85-2.687,1.469L9.3,35.785c-.031-.031-.056-.062-.087-.094C6.975,33.3,2.846,31.616,3.021,28.41c.062-1.169.469-4.237,7.941-7.962,6.125-3.05,11.021-2.212,11.864-.35,1.212,2.656-2.618,7.6-8.978,8.312a4.788,4.788,0,0,1-4.017-1.019c-.331-.369-.381-.387-.506-.319-.206.112-.075.437,0,.631a3.766,3.766,0,0,0,2.3,1.806,12.176,12.176,0,0,0,7.448-.737c3.861-1.487,6.866-5.631,5.985-9.1-.9-3.525-6.742-4.681-12.268-2.719a27.8,27.8,0,0,0-9.415,5.4C.33,25.2-.157,27.686.043,28.723.755,32.4,5.828,34.8,7.858,36.579c-.1.056-.194.106-.281.156-1.018.506-4.886,2.531-5.854,4.668C.63,43.828,1.9,45.565,2.741,45.8a6.239,6.239,0,0,0,6.723-2.725,6.766,6.766,0,0,0,.6-6.218c-.006-.019-.019-.031-.025-.05.262-.156.531-.312.8-.469.518-.306,1.024-.587,1.468-.831a9.707,9.707,0,0,0-.525,2.662,5.532,5.532,0,0,0,1.194,3.856,1.312,1.312,0,0,0,.962.312c.862,0,1.25-.712,1.68-1.562.531-1.037,1-2.244,1-2.244S16.03,41.8,17.636,41.8c.587,0,1.174-.756,1.437-1.144v.006s.012-.025.044-.075c.062-.094.094-.15.094-.15v-.019c.237-.406.756-1.337,1.537-2.875,1.012-1.987,1.98-4.468,1.98-4.468a12.577,12.577,0,0,0,.387,1.612,15.1,15.1,0,0,0,.837,1.875c-.237.325-.381.512-.381.512a.019.019,0,0,0,.006.013c-.187.25-.4.519-.619.781a22.058,22.058,0,0,0-1.875,2.35.638.638,0,0,0,.175.856,1.519,1.519,0,0,0,.981.156,4.334,4.334,0,0,0,1.469-.337,5.137,5.137,0,0,0,1.262-.662,2.821,2.821,0,0,0,1.212-2.487,5.176,5.176,0,0,0-.456-1.762c.069-.1.144-.206.212-.312a33.223,33.223,0,0,0,2.193-3.788,12.577,12.577,0,0,0,.387,1.612,11.023,11.023,0,0,0,.712,1.606,6.87,6.87,0,0,0-2.13,2.756c-.462,1.331-.1,1.931.581,2.069a2.1,2.1,0,0,0,1.069-.219,4.966,4.966,0,0,0,1.349-.694,3.02,3.02,0,0,0,1.487-2.475,4.649,4.649,0,0,0-.337-1.462,7.628,7.628,0,0,1,3.88-.45c3.48.406,4.161,2.581,4.03,3.487a2.311,2.311,0,0,1-1.106,1.562c-.244.15-.319.206-.3.319.031.162.144.156.35.119A2.715,2.715,0,0,0,40,37.69c.1-2.125-1.943-4.462-5.562-4.443ZM7.615,42.291c-1.149,1.256-2.762,1.731-3.455,1.331-.744-.432-.45-2.281.968-3.62A18.517,18.517,0,0,1,7.84,37.977c.169-.1.412-.25.712-.431.05-.031.075-.044.075-.044.056-.037.119-.069.181-.106a4.988,4.988,0,0,1-1.194,4.893Zm8.4-5.712c-.4.981-1.243,3.481-1.755,3.35-.437-.112-.706-2.019-.087-3.893a8.619,8.619,0,0,1,1.369-2.506c.631-.706,1.324-.931,1.487-.65C17.243,33.248,16.261,35.966,16.011,36.579Zm6.937,3.312c-.169.087-.325.144-.4.1-.056-.031.069-.15.069-.15s.869-.931,1.212-1.356c.2-.25.431-.544.681-.869,0,.031.006.062.006.1a2.9,2.9,0,0,1-1.57,2.175ZM28.3,38.672c-.125-.087-.106-.381.312-1.294A4.857,4.857,0,0,1,29.8,35.847a2.261,2.261,0,0,1,.119.675,2.2,2.2,0,0,1-1.618,2.15Z" transform="translate(-0.004 -16.004)"/></svg>