<svg xmlns="http://www.w3.org/2000/svg" width="20.053" height="20" viewBox="0 0 20.053 20"><path d="M22.3,24.042a14.884,14.884,0,0,1-6.588-1.588,21.606,21.606,0,0,1-5.84-4.173,21.846,21.846,0,0,1-4.186-5.84,14.735,14.735,0,0,1-1.6-6.562,1.757,1.757,0,0,1,.539-1.312,1.793,1.793,0,0,1,1.3-.525H9.674a2.13,2.13,0,0,1,1.378.433A2.283,2.283,0,0,1,11.8,5.748l.683,2.887a2.69,2.69,0,0,1-.026,1.247,1.81,1.81,0,0,1-.6.905L9.175,13.2a17.281,17.281,0,0,0,2.572,3.255A16.834,16.834,0,0,0,14.923,18.9l2.651-2.625a2.52,2.52,0,0,1,1-.643,2.016,2.016,0,0,1,1.181.013l2.651.6a2.533,2.533,0,0,1,1.286.761,2.073,2.073,0,0,1,.447,1.391v3.78A1.8,1.8,0,0,1,23.6,23.5,1.77,1.77,0,0,1,22.3,24.042ZM7.837,10.839,9.831,9.028,9.28,6.693H6.813a6.9,6.9,0,0,0,.236,1.916A14.917,14.917,0,0,0,7.837,10.839Zm9.528,9.4a9.336,9.336,0,0,0,1.969.709,15.387,15.387,0,0,0,2.126.367v-2.52l-2.152-.525ZM7.837,10.839ZM17.364,20.236Z" transform="translate(-4.083 -4.042)" fill="#fff"/></svg>