<svg xmlns="http://www.w3.org/2000/svg" width="16.067" height="20" viewBox="0 0 16.067 20"><path d="M13.992,12.518a1.872,1.872,0,0,0,1.859-1.859,1.808,1.808,0,0,0-.537-1.311A1.777,1.777,0,0,0,13.992,8.8a1.811,1.811,0,0,0-1.311.536,1.856,1.856,0,0,0,0,2.634A1.79,1.79,0,0,0,13.992,12.518Zm0,6.937a25.774,25.774,0,0,0,4.243-4.815,7.361,7.361,0,0,0,1.382-3.79A5.677,5.677,0,0,0,18,6.654a5.439,5.439,0,0,0-4-1.621A5.451,5.451,0,0,0,10,6.654a5.654,5.654,0,0,0-1.633,4.2,7.188,7.188,0,0,0,1.406,3.79A28.556,28.556,0,0,0,13.992,19.455Zm0,3.17A34.9,34.9,0,0,1,7.96,16.26a9.718,9.718,0,0,1-2-5.411,7.754,7.754,0,0,1,2.42-6,8.183,8.183,0,0,1,11.227,0,7.754,7.754,0,0,1,2.42,6,9.749,9.749,0,0,1-2,5.4A34.675,34.675,0,0,1,13.992,22.625ZM13.992,10.849Z" transform="translate(-5.958 -2.625)" fill="#fff"/></svg>