<svg xmlns="http://www.w3.org/2000/svg" width="24.613" height="20" viewBox="0 0 24.613 20"><path d="M5.407,25.708a2.845,2.845,0,0,1-2.088-.861,2.843,2.843,0,0,1-.861-2.087V8.686a2.892,2.892,0,0,1,.861-2.1,2.821,2.821,0,0,1,2.088-.876H24.093a2.853,2.853,0,0,1,2.117.876,2.892,2.892,0,0,1,.861,2.1V22.759a2.843,2.843,0,0,1-.861,2.087,2.878,2.878,0,0,1-2.117.861Zm0-2.949H17.786V18.233H5.407Zm14.218,0h4.467V11.869H19.626ZM5.407,16.394H17.786V11.869H5.407Z" transform="translate(-2.458 -5.708)" fill="#fff"/></svg>