<svg xmlns="http://www.w3.org/2000/svg" width="42.939" height="41.866" viewBox="0 0 42.939 41.866"><path d="M7.6,0H35.336a7.6,7.6,0,0,1,7.6,7.6V34.262a7.6,7.6,0,0,1-7.6,7.6H7.6a7.6,7.6,0,0,1-7.6-7.6V7.6A7.6,7.6,0,0,1,7.6,0Z" fill="#470137"/><g transform="translate(6.255 9.176)"><path d="M51.285,53.112l-5.367,8.856,5.725,9.393a.308.308,0,0,1,.036.215c-.018.072-.089.018-.2.036h-4.1c-.286,0-.483-.018-.608-.2-.376-.751-.769-1.485-1.145-2.236-.376-.734-.787-1.485-1.217-2.254s-.859-1.539-1.288-2.326H43.09c-.376.769-.787,1.539-1.2,2.308s-.823,1.539-1.217,2.29c-.412.751-.823,1.521-1.235,2.254-.072.179-.215.2-.412.2H35.093c-.072,0-.125.036-.125-.054A.248.248,0,0,1,35,71.4l5.564-9.125-5.421-9.178c-.054-.072-.072-.143-.036-.179a.207.207,0,0,1,.179-.072h4.061a1.056,1.056,0,0,1,.25.036.507.507,0,0,1,.179.161c.34.769.734,1.539,1.145,2.308.429.769.841,1.521,1.288,2.272.429.751.823,1.5,1.2,2.272h.036c.376-.787.769-1.557,1.163-2.308s.805-1.5,1.217-2.254.805-1.521,1.2-2.254a.3.3,0,0,1,.107-.179.341.341,0,0,1,.233-.036h3.775a.165.165,0,0,1,.2.125c.018.018-.018.089-.054.125Zm8.266,18.875a8.9,8.9,0,0,1-3.847-.805A6.237,6.237,0,0,1,53,68.749a7.742,7.742,0,0,1-.984-4.079A7.348,7.348,0,0,1,53,60.895a7.43,7.43,0,0,1,2.845-2.773,9.152,9.152,0,0,1,4.527-1.038,3.2,3.2,0,0,1,.376.018c.161.018.34.018.555.036V51.484c0-.125.054-.2.179-.2h3.632a.16.16,0,0,1,.179.125V68.481c0,.322.018.68.036,1.073.036.376.054.734.072,1.038a.291.291,0,0,1-.179.286,13.664,13.664,0,0,1-2.916.859A15.781,15.781,0,0,1,59.551,71.988ZM61.3,68.409V60.537a4.577,4.577,0,0,0-.483-.089c-.2-.018-.394-.036-.59-.036a4.411,4.411,0,0,0-2.022.465A4.011,4.011,0,0,0,56.688,62.2a3.966,3.966,0,0,0-.59,2.272,4.986,4.986,0,0,0,.3,1.843,3.5,3.5,0,0,0,.805,1.27,3.091,3.091,0,0,0,1.217.716,4.683,4.683,0,0,0,1.485.233c.268,0,.519-.018.751-.036a1.565,1.565,0,0,0,.644-.089Z" transform="translate(-34.961 -51.284)" fill="#ff61f6"/></g></svg>