<svg xmlns="http://www.w3.org/2000/svg" width="36.915" height="41.866" viewBox="0 0 36.915 41.866"><path d="M33.631,37.681,30.272,0H67.187L63.824,37.675,48.707,41.866Z" transform="translate(-30.272)" fill="#264de4"/><path d="M268.215,69.873l2.874-32.2H256V73.26Z" transform="translate(-237.542 -34.597)" fill="#2965f1"/><path d="M115.113,103.551l.414,4.621h10.342v-4.621Zm-.412-4.732h11.168V94.2H114.281Zm11.168,16.735-.02.005-5.147-1.39-.329-3.686h-4.639l.648,7.256,9.467,2.628.021-.006Z" transform="translate(-107.412 -86.495)" fill="#ebebeb"/><path d="M255.8,103.551v4.621H261.5l-.536,5.994-5.154,1.391v4.808l9.474-2.626.069-.781,1.086-12.167.113-1.241.834-9.354H255.8v4.621h6.512l-.421,4.732Z" transform="translate(-237.363 -86.495)" fill="#fff"/></svg>