<svg xmlns="http://www.w3.org/2000/svg" width="20.309" height="19.692" viewBox="0 0 20.309 19.692"><g transform="translate(0 0)"><path d="M37.828,5.742l5.526.815a1.23,1.23,0,0,1,.685,2.092l-4.007,3.93.946,5.638a1.232,1.232,0,0,1-1.792,1.292l-4.938-2.634-4.934,2.634a1.239,1.239,0,0,1-1.3-.088,1.224,1.224,0,0,1-.492-1.2l.946-5.638L24.46,8.65a1.236,1.236,0,0,1-.3-1.261,1.223,1.223,0,0,1,.989-.831l5.521-.815L33.144.653a1.229,1.229,0,0,1,2.211,0Z" transform="translate(-24.095 0.039)" fill="#e1d531"/></g></svg>