<svg xmlns="http://www.w3.org/2000/svg" width="18.852" height="41.866" viewBox="0 0 18.852 41.866"><path d="M15.314,41.441l.4-6.693,1.109-1.893a19.388,19.388,0,0,1-6.751,1.033,19.336,19.336,0,0,1-6.712-1.014L4.6,34.939l.44,6.5c0,.7,2.3,1.262,5.135,1.262s5.135-.565,5.135-1.262M14.047,10.185l.843-3.333L19.559,1.94,18.328.892,13.385,6.125l-.979,3.981Q11.3,10.07,10.2,10.07c-5.206,0-9.426.593-9.426,1.325S4.989,12.72,10.2,12.72s9.426-.593,9.426-1.325c0-.539-2.289-1-5.574-1.21" transform="translate(-0.769 -0.838)" fill="#d34a47"/><path d="M150.347,145.972a4,4,0,0,1-.72.043c-.537,0-.919,0-1.071-.142a.24.24,0,0,1-.063-.161.206.206,0,0,1,.154-.186l.081.128c-.035.012-.056.027-.056.042a2.284,2.284,0,0,0,.97.116c.42-.005.928-.04.929-.111,0-.022-.038-.042-.105-.058l.081-.127c.109.034.2.1.2.212,0,.192-.246.222-.4.243" transform="translate(-137.56 -134.758)" fill="#fff"/><path d="M20.374,1.27c.117-.136-.061-.482-.4-.775S19.27.076,19.152.212s.061.482.4.774.706.419.823.283m-4.46,23.143c-.111-1.065,2.329-2.606,1.7-2.656-1.348.077-2.018,1.579-2.7,3.153-.248.577-1.1,3.036-1.656,2.733s.723-2.325,1.082-3.525c-.414.3-1.932,1.483-2.324.379-.629.534-1.973.824-1.822-.58-.335.593-1.086,1.421-1.988,1.077-1.184-.452.686-4.223,1.151-4.033s-.094,1.049-.24,1.383c-.322.734-.694,1.657-.445,1.846.426.324,1.584-1.225,1.61-1.259.217-.286.834-2.159,1.331-1.944s-1.241,2.687-.591,3.178c.131.1.667-.061.994-.414.211-.228.138-.734.842-2.412s1.331-3.768,1.813-3.609.085,1.232-.088,1.632c-.812,1.877-2.217,4.977-1.555,4.742A2.811,2.811,0,0,0,14.69,23.1c.649-.759.619-2.01,1.051-1.983s.36.428.255.733c.426-.487,2.017-1.513,2.4-.5.455,1.2-2.277,2.94-1.6,2.851A4.126,4.126,0,0,0,19,22.812l1.265-11.371s-1.273,1.053-9.369,1.053-9.238-1.031-9.238-1.031L2.736,21.842c.572-1.624,1.929-4.91,4.068-4.8.973.05,2.272,1.924,1.159,1.988-.471.027-.519-.935-1.077-1.077a1.678,1.678,0,0,0-1.325.58c-.722.707-2.276,3.5-2.07,4.886.261,1.773,2.446-.616,2.816-1.325.26-.5.436-1.98,1.005-1.824s-.05,1.683-.462,3.033c-.464,1.516-.707,3.116-1.288,2.932s.365-2.141.331-2.484c-.546.5-1.553,1.78-2.84,1.148l.669,6.445s1.777,1.4,7.131,1.4,7.2-1.382,7.2-1.382l.83-7.465c-.679.662-2.83,1.836-2.967.512" transform="translate(-1.593 -0.158)" fill="#d34a47"/></svg>