<svg xmlns="http://www.w3.org/2000/svg" width="36.916" height="41.866" viewBox="0 0 36.916 41.866"><g transform="translate(0 0)"><path d="M18.259,37.679,14.9,0H51.817L48.453,37.675,33.335,41.866Z" transform="translate(-14.9)" fill="#e44d26"/><path d="M126.036,54.123l12.216-3.386,2.875-32.195h-15.09Z" transform="translate(-107.578 -15.462)" fill="#f16529"/><path d="M67.856,55.736H61.739L61.32,51h6.536V46.381H56.268l.112,1.237,1.135,12.737H67.856Z" transform="translate(-49.397 -38.678)" fill="#ebebeb"/><path d="M75.143,149.508l-.019,0-5.149-1.391-.326-3.684H65.007l.647,7.257,9.466,2.628.023-.009Z" transform="translate(-56.685 -120.448)" fill="#ebebeb"/><path d="M125.952,102.705v4.619h5.689l-.535,5.991-5.154,1.4v4.805l9.471-2.624.07-.782,1.089-12.169.112-1.237H125.952Z" transform="translate(-107.508 -85.647)" fill="#fff"/><path d="M125.952,46.381V51h11.16l.093-1.037.209-2.344.112-1.237Z" transform="translate(-107.508 -38.678)" fill="#fff"/></g></svg>