<?xml version="1.0" encoding="UTF-8"?>
<!DOCTYPE svg PUBLIC "-//W3C//DTD SVG 1.1//EN" "http://www.w3.org/Graphics/SVG/1.1/DTD/svg11.dtd">
<!-- Creator: CorelDRAW 2019 (64-Bit) -->
<svg xmlns="http://www.w3.org/2000/svg" xml:space="preserve" width="10mm" height="10mm" version="1.1" style="shape-rendering:geometricPrecision; text-rendering:geometricPrecision; image-rendering:optimizeQuality; fill-rule:evenodd; clip-rule:evenodd"
viewBox="0 0 1000 1000"
 xmlns:xlink="http://www.w3.org/1999/xlink"
 xmlns:xodm="http://www.corel.com/coreldraw/odm/2003">
 <defs>
  <style type="text/css">
   <![CDATA[
    .fil0 {fill:#2DFFCD}
    .fil1 {fill:#071914;fill-rule:nonzero}
   ]]>
  </style>
 </defs>
 <g id="Capa_x0020_1">
  <metadata id="CorelCorpID_0Corel-Layer"/>
  <g id="_2238529002672">
   <circle class="fil0" cx="491.99" cy="507.99" r="459.71"/>
   <g>
    <g>
     <path class="fil1" d="M643.91 408.42l-60.78 0 0 0 -0.12 -4.72 -0.36 -4.65 -0.58 -4.56 -0.79 -4.47 -1.03 -4.42 -1.21 -4.31 -1.44 -4.22 -1.62 -4.13 -1.83 -4.02 -2.01 -3.95 -2.2 -3.82 -2.36 -3.68 -2.55 -3.58 -2.72 -3.46 -2.87 -3.31 -3.01 -3.17 -3.17 -3.01 -3.32 -2.88 -3.44 -2.71 -3.58 -2.54 -3.71 -2.38 -3.8 -2.19 -3.93 -2.01 -4.03 -1.82 -4.15 -1.63 -4.21 -1.44 -4.3 -1.21 -4.42 -1.03 -4.47 -0.79 -4.56 -0.58 -4.66 -0.36 -4.71 -0.12 0 -60.78 7.79 0.2 7.7 0.58 7.6 0.96 7.51 1.35 7.34 1.69 7.24 2.05 7.07 2.4 6.89 2.71 6.75 3.06 6.55 3.35 6.38 3.67 6.15 3.94 5.96 4.24 5.74 4.51 5.5 4.76 5.27 5.03 5.03 5.27 4.77 5.51 4.5 5.74 4.23 5.94 3.96 6.18 3.66 6.38 3.35 6.53 3.05 6.74 2.72 6.91 2.4 7.08 2.05 7.23 1.69 7.34 1.35 7.51 0.96 7.6 0.58 7.69 0.2 7.8 0 0zm-151.94 151.94l0 -60.78 0 0 4.71 -0.12 4.66 -0.36 4.56 -0.58 4.47 -0.79 4.42 -1.03 4.3 -1.21 4.21 -1.44 4.15 -1.63 4.03 -1.82 3.93 -2.01 3.8 -2.19 3.71 -2.38 3.58 -2.54 3.44 -2.71 3.32 -2.88 3.17 -3.01 3.01 -3.17 2.88 -3.32 2.71 -3.44 2.54 -3.58 2.38 -3.71 2.19 -3.8 2.01 -3.93 1.82 -4.03 1.63 -4.15 1.44 -4.21 1.21 -4.3 1.03 -4.42 0.79 -4.47 0.58 -4.56 0.36 -4.66 0.12 -4.71 60.78 0 -0.2 7.79 -0.58 7.7 -0.96 7.6 -1.35 7.51 -1.69 7.34 -2.05 7.24 -2.4 7.07 -2.71 6.89 -3.06 6.75 -3.35 6.55 -3.67 6.38 -3.94 6.15 -4.24 5.96 -4.51 5.74 -4.76 5.5 -5.03 5.27 -5.27 5.03 -5.5 4.76 -5.74 4.51 -5.96 4.24 -6.15 3.94 -6.38 3.67 -6.55 3.35 -6.75 3.06 -6.89 2.71 -7.07 2.4 -7.24 2.05 -7.34 1.69 -7.51 1.35 -7.6 0.96 -7.7 0.58 -7.79 0.2 0 0zm-151.95 -151.94l60.78 0 0 0 0.12 4.71 0.36 4.66 0.58 4.56 0.79 4.47 1.03 4.42 1.21 4.3 1.44 4.21 1.63 4.15 1.82 4.03 2.01 3.93 2.19 3.8 2.38 3.71 2.54 3.58 2.71 3.44 2.88 3.32 3.01 3.17 3.17 3.01 3.31 2.87 3.46 2.72 3.58 2.55 3.68 2.36 3.82 2.2 3.95 2.01 4.02 1.83 4.13 1.62 4.22 1.44 4.31 1.21 4.42 1.03 4.47 0.79 4.56 0.58 4.65 0.36 4.72 0.12 0 60.78 -7.8 -0.2 -7.69 -0.58 -7.6 -0.96 -7.51 -1.35 -7.34 -1.69 -7.23 -2.05 -7.08 -2.4 -6.91 -2.72 -6.74 -3.05 -6.53 -3.35 -6.38 -3.66 -6.18 -3.96 -5.94 -4.23 -5.74 -4.5 -5.51 -4.77 -5.27 -5.03 -5.03 -5.27 -4.76 -5.5 -4.51 -5.74 -4.24 -5.96 -3.94 -6.15 -3.67 -6.38 -3.35 -6.55 -3.06 -6.75 -2.71 -6.89 -2.4 -7.07 -2.05 -7.24 -1.69 -7.34 -1.35 -7.51 -0.96 -7.6 -0.58 -7.7 -0.2 -7.79 0 0zm151.95 -151.95l0 60.78 0 0 -4.72 0.12 -4.65 0.36 -4.56 0.58 -4.47 0.79 -4.42 1.03 -4.31 1.21 -4.22 1.44 -4.13 1.62 -4.02 1.83 -3.95 2.01 -3.82 2.2 -3.68 2.36 -3.58 2.55 -3.46 2.72 -3.31 2.87 -3.17 3.01 -3.01 3.17 -2.87 3.31 -2.72 3.46 -2.55 3.58 -2.36 3.68 -2.2 3.82 -2.01 3.95 -1.83 4.02 -1.62 4.13 -1.44 4.22 -1.21 4.31 -1.03 4.42 -0.79 4.47 -0.58 4.56 -0.36 4.65 -0.12 4.72 -60.78 0 0.2 -7.8 0.58 -7.69 0.96 -7.6 1.35 -7.51 1.69 -7.34 2.05 -7.23 2.4 -7.08 2.72 -6.91 3.05 -6.74 3.35 -6.53 3.66 -6.38 3.96 -6.18 4.23 -5.94 4.5 -5.74 4.77 -5.51 5.03 -5.27 5.27 -5.03 5.51 -4.77 5.74 -4.5 5.94 -4.23 6.18 -3.96 6.38 -3.66 6.53 -3.35 6.74 -3.05 6.91 -2.72 7.08 -2.4 7.23 -2.05 7.34 -1.69 7.51 -1.35 7.6 -0.96 7.69 -0.58 7.8 -0.2 0 0z"/>
    </g>
    <g>
     <path class="fil1" d="M491.97 759.54l0 -60.78 0 0 4.71 -0.12 4.66 -0.36 4.56 -0.58 4.47 -0.79 4.4 -1.02 4.32 -1.23 4.23 -1.43 4.13 -1.63 4.03 -1.82 3.93 -2.01 3.8 -2.19 3.71 -2.38 3.58 -2.54 3.44 -2.71 3.31 -2.86 3.17 -3.03 3.02 -3.18 2.88 -3.32 2.71 -3.44 2.54 -3.58 2.38 -3.71 2.19 -3.8 2.01 -3.93 1.82 -4.03 1.63 -4.15 1.44 -4.21 1.21 -4.3 1.03 -4.42 0.79 -4.47 0.58 -4.56 0.36 -4.66 0.12 -4.71 60.78 0 -0.2 7.79 -0.58 7.7 -0.96 7.6 -1.35 7.51 -1.69 7.34 -2.05 7.24 -2.4 7.07 -2.71 6.89 -3.06 6.75 -3.35 6.55 -3.67 6.38 -3.94 6.15 -4.24 5.96 -4.51 5.74 -4.76 5.5 -5.02 5.26 -5.27 5.03 -5.51 4.78 -5.74 4.51 -5.96 4.24 -6.15 3.94 -6.38 3.67 -6.55 3.35 -6.75 3.06 -6.91 2.71 -7.05 2.39 -7.22 2.05 -7.36 1.7 -7.51 1.35 -7.6 0.96 -7.7 0.58 -7.79 0.2 0 0zm-151.95 -151.95l60.78 0 0.12 4.71 0.36 4.66 0.58 4.56 0.79 4.47 1.03 4.42 1.21 4.3 1.44 4.21 1.63 4.15 1.82 4.03 2.01 3.93 2.19 3.8 2.38 3.71 2.54 3.58 2.71 3.44 2.88 3.32 3.02 3.18 3.17 3.03 3.3 2.85 3.46 2.72 3.58 2.55 3.68 2.36 3.82 2.2 3.95 2.01 4.02 1.83 4.11 1.61 4.24 1.44 4.33 1.23 4.4 1.02 4.47 0.79 4.56 0.58 4.65 0.36 4.72 0.12 0 60.78 -7.8 -0.2 -7.69 -0.58 -7.6 -0.96 -7.51 -1.35 -7.36 -1.7 -7.21 -2.05 -7.06 -2.38 -6.93 -2.73 -6.74 -3.05 -6.53 -3.35 -6.38 -3.66 -6.18 -3.96 -5.94 -4.23 -5.74 -4.5 -5.52 -4.79 -5.27 -5.03 -5.02 -5.26 -4.76 -5.5 -4.51 -5.74 -4.24 -5.96 -3.94 -6.15 -3.67 -6.38 -3.35 -6.55 -3.06 -6.75 -2.71 -6.89 -2.4 -7.07 -2.05 -7.24 -1.69 -7.34 -1.35 -7.51 -0.96 -7.6 -0.58 -7.7 -0.2 -7.79z"/>
    </g>
    <g>
     <polygon class="fil1" points="583.13,557.92 583.13,408.42 643.91,408.42 643.91,557.92 "/>
    </g>
   </g>
  </g>
 </g>
</svg>
