<svg xmlns="http://www.w3.org/2000/svg" width="1132.717" height="288.095" fill="#34343c" viewBox="0 0 1132.717 288.095">
  <g id="logo_ari_gomez" data-name="logo ari gomez" transform="translate(-27.28 -33.071)">
    <g id="logo" transform="translate(27.28 33.071)">
      <g id="letra_g" data-name="letra g" transform="translate(354.297 60.201)">
        <g id="o" transform="translate(0 0)">
          <path id="Trazado_34" data-name="Trazado 34" d="M573.227,174.159H545.488L545.429,172l-.159-2.131-.26-2.072-.361-2.039-.47-2.005-.554-1.972-.646-1.913-.755-1.9-.831-1.854-.923-1.787-1-1.737-1.082-1.686-1.149-1.628L536,147.712l-1.317-1.527-1.393-1.46-1.426-1.368-1.51-1.3-1.586-1.25-1.628-1.15-1.687-1.082-1.737-1-1.787-.923-1.854-.831-1.888-.747-1.93-.654-1.963-.554-2.005-.47-2.047-.361-2.072-.26-2.131-.159-2.156-.059V104.82l3.549.092,3.507.26,3.482.445,3.423.613,3.365.772,3.289.94,3.239,1.091,3.146,1.25,3.063,1.384,3,1.527,2.911,1.67,2.811,1.8,2.718,1.938,2.609,2.056,2.517,2.173,2.417,2.307,2.282,2.4,2.173,2.5,2.064,2.626,1.938,2.719,1.8,2.811,1.67,2.911,1.527,3,1.384,3.063,1.242,3.138,1.1,3.239.94,3.3.772,3.365.612,3.415.445,3.482.26,3.507.092,3.549h0ZM503.879,243.5V215.759h0l2.156-.059,2.131-.159,2.072-.26,2.047-.361,2.005-.47,1.963-.554,1.93-.654,1.888-.747,1.854-.831,1.787-.923,1.737-1,1.686-1.082,1.628-1.15,1.586-1.25,1.51-1.3,1.426-1.368,1.393-1.46L536,200.606l1.242-1.569,1.149-1.628,1.082-1.686,1-1.737.923-1.787.831-1.854.755-1.9.646-1.913.554-1.972.47-2.005.361-2.039.26-2.072.159-2.131.059-2.156h27.739l-.092,3.549-.26,3.507-.445,3.482-.612,3.415-.772,3.365-.94,3.3-1.1,3.239-1.242,3.138-1.384,3.063-1.527,3-1.67,2.911-1.8,2.811-1.938,2.719-2.064,2.626-2.173,2.5-2.282,2.4-2.417,2.307-2.517,2.173-2.609,2.056-2.718,1.938-2.811,1.8-2.911,1.67-3,1.527-3.062,1.384-3.147,1.25-3.239,1.091-3.289.94-3.365.772-3.423.613-3.482.445-3.507.26-3.549.092h0ZM434.54,174.159h27.739l.059,2.156.159,2.131.26,2.072.361,2.039.47,2.005.554,1.972.646,1.913.755,1.9.831,1.854.923,1.787,1,1.737,1.082,1.686,1.149,1.628,1.25,1.586,1.317,1.519,1.368,1.435,1.435,1.368,1.519,1.317,1.586,1.25,1.628,1.149,1.686,1.082,1.737,1,1.787.923,1.854.831,1.9.755,1.913.646,1.972.554,2.005.47,2.039.361,2.072.26,2.131.159,2.156.059V243.5l-3.549-.092-3.507-.26-3.482-.445-3.415-.612-3.365-.772-3.3-.94-3.239-1.1-3.138-1.242-3.062-1.384-3-1.527-2.911-1.67-2.811-1.8-2.719-1.938-2.609-2.056L457.27,225.5l-2.425-2.307-2.307-2.425-2.156-2.509-2.056-2.609-1.938-2.719-1.8-2.811-1.67-2.911-1.527-3L440,201.151l-1.242-3.138-1.1-3.239-.94-3.3-.772-3.365-.612-3.415-.445-3.482-.26-3.507-.092-3.549h0Zm69.339-69.339v27.739h0l-2.156.059-2.131.159-2.072.26-2.039.361-2.005.47-1.972.554-1.913.646-1.9.755-1.854.831-1.787.923-1.737,1-1.686,1.082L479,140.807l-1.586,1.25-1.519,1.317-1.435,1.368-1.368,1.435-1.317,1.519-1.25,1.586-1.149,1.628-1.082,1.686-1,1.737-.923,1.787-.831,1.854-.755,1.9-.646,1.913-.554,1.972-.47,2.005-.361,2.039-.26,2.072L462.338,172l-.059,2.156H434.54l.092-3.549.26-3.507.445-3.482.613-3.415.772-3.365.94-3.3,1.1-3.239L440,147.167l1.384-3.063,1.527-3,1.67-2.911,1.8-2.811,1.938-2.719,2.056-2.609,2.156-2.509,2.307-2.425,2.425-2.307,2.509-2.156,2.609-2.056,2.719-1.938,2.811-1.8,2.911-1.67,3-1.527,3.063-1.384,3.138-1.242,3.239-1.1,3.3-.94,3.365-.772,3.415-.613,3.482-.445,3.507-.26,3.549-.092h0Z" transform="translate(-434.54 -104.82)"/>
        </g>
        <g id="u" transform="translate(0 158.555)">
          <path id="Trazado_35" data-name="Trazado 35" d="M503.888,365.129V337.39h0l2.156-.059,2.131-.159,2.072-.26,2.039-.361,2.005-.47,1.972-.554,1.913-.646,1.9-.755,1.854-.831,1.787-.923,1.737-1,1.686-1.082,1.628-1.15,1.586-1.25,1.519-1.317,1.435-1.368,1.368-1.435,1.317-1.519,1.25-1.586,1.149-1.628,1.082-1.687,1-1.737.923-1.787.831-1.854.755-1.9.646-1.913.554-1.972.47-2.005.361-2.039.26-2.072.159-2.131.059-2.156h27.739l-.092,3.549-.26,3.507-.445,3.482-.612,3.415-.772,3.365-.94,3.3-1.1,3.239-1.242,3.138-1.384,3.063-1.527,3-1.67,2.912-1.8,2.811-1.938,2.719-2.056,2.609-2.156,2.509-2.307,2.425-2.425,2.307-2.509,2.156-2.609,2.056-2.718,1.938-2.811,1.8-2.911,1.67-3,1.527-3.062,1.384-3.138,1.242-3.239,1.1-3.3.94-3.365.772-3.415.612-3.482.445-3.507.26-3.549.092h0ZM434.54,295.79h27.739l.059,2.156.159,2.131.26,2.072.361,2.039.47,2.005.554,1.972.646,1.913.755,1.9.831,1.854.923,1.787,1,1.737,1.082,1.686,1.149,1.628,1.242,1.569,1.334,1.535,1.368,1.452,1.426,1.351,1.519,1.317,1.586,1.25,1.628,1.15,1.686,1.082,1.737,1,1.787.923,1.854.831,1.888.747,1.93.654,1.963.554,2.005.47,2.047.361,2.072.26,2.131.159,2.156.059v27.739l-3.549-.092-3.507-.26-3.482-.445-3.423-.612-3.365-.772-3.289-.94-3.239-1.091-3.146-1.25-3.062-1.384-3-1.527-2.911-1.67-2.811-1.8-2.719-1.938-2.609-2.056-2.509-2.156-2.433-2.324-2.291-2.408-2.156-2.492-2.064-2.626-1.938-2.719-1.8-2.811-1.67-2.912-1.527-3L440,322.782l-1.242-3.138-1.1-3.239-.94-3.3-.772-3.365-.613-3.415-.445-3.482-.26-3.507-.092-3.549Z" transform="translate(-434.54 -295.79)" />
        </g>
        <g id="l" transform="translate(110.948 69.339)">
          <path id="Trazado_36" data-name="Trazado 36" d="M566.77,256.312V187.46h27.739v68.852Z" transform="translate(-566.77 -187.46)"/>
        </g>
      </g>
      <g id="letra_r" data-name="letra r" transform="translate(146.834 62.629)">
        <path id="Trazado_37" data-name="Trazado 37" d="M209.14,252.431v-133.7h34.173V131.8q11.286-15.455,30.6-15.45,13.974,0,20.8,5.046l-12.177,32.089a33.87,33.87,0,0,0-17.233-5.046q-14.865,0-21.987,14.262v89.73H209.14Z" transform="translate(-209.14 -116.35)"/>
      </g>
      <g id="letra_i" data-name="letra i" transform="translate(236.724 0)">
        <path id="_1" data-name="1" d="M329.385,246.269v-133.7H363.55v133.7ZM325.82,64.422a18.278,18.278,0,0,1,6.235-14.408,22.125,22.125,0,0,1,15.158-5.494,19.546,19.546,0,0,1,13.668,5.494q5.938,5.5,5.942,14.408,0,9.8-5.942,15.606a19.045,19.045,0,0,1-13.668,5.787,21.334,21.334,0,0,1-15.3-5.787Q325.82,74.227,325.82,64.422Z" transform="translate(-325.82 -44.52)"/>
      </g>
      <g id="letra_a" data-name="letra a" transform="translate(0 59.706)">
        <g id="Grupo_11" data-name="Grupo 11" transform="translate(0 0)">
          <path id="Trazado_38" data-name="Trazado 38" d="M160.958,170.587H133.219l-.059-2.156L133,166.3l-.26-2.072-.361-2.047-.47-2.005-.554-1.963-.654-1.93-.747-1.888-.831-1.854-.923-1.787-1-1.737-1.082-1.686-1.149-1.628-1.25-1.586L122.4,142.6l-1.351-1.426L119.6,139.8l-1.535-1.334-1.569-1.242-1.628-1.15-1.686-1.082-1.737-1-1.787-.923-1.854-.831-1.9-.755L104,130.842l-1.972-.554-2.005-.47-2.039-.361-2.072-.26-2.131-.159-2.156-.059V101.24l3.549.092,3.507.26,3.482.445,3.415.613,3.365.772,3.3.94,3.239,1.1,3.138,1.242,3.063,1.384,3,1.527,2.912,1.67,2.811,1.8,2.719,1.938,2.626,2.064,2.492,2.156,2.408,2.291,2.324,2.433,2.156,2.509,2.056,2.609,1.938,2.719,1.8,2.811,1.67,2.911,1.527,3,1.384,3.063,1.25,3.146,1.091,3.239.94,3.289.772,3.365.613,3.423.445,3.482.26,3.507.092,3.549h0ZM91.619,239.927V212.188h0l2.156-.059,2.131-.159,2.072-.26,2.039-.361,2.005-.47,1.972-.554,1.913-.646,1.9-.755,1.854-.831,1.787-.923,1.737-1,1.687-1.082,1.628-1.15,1.586-1.25,1.519-1.317L121.036,200l1.368-1.435,1.317-1.519,1.25-1.586,1.149-1.628,1.082-1.686,1-1.737.923-1.787.831-1.854.755-1.9.646-1.913.554-1.972.47-2.005.361-2.039.26-2.072.159-2.131.059-2.156h27.739l-.092,3.549-.26,3.507-.445,3.482-.613,3.415-.772,3.365-.94,3.3-1.1,3.239L155.5,197.58l-1.384,3.063-1.527,3-1.67,2.911-1.8,2.811-1.938,2.719-2.056,2.609-2.156,2.509-2.307,2.425-2.425,2.307-2.509,2.156-2.609,2.056-2.719,1.938-2.811,1.8-2.912,1.67-3,1.527-3.063,1.384-3.138,1.242-3.239,1.1-3.3.94-3.365.772-3.415.613-3.482.445-3.507.26-3.549.092h0ZM22.28,170.587H50.019l.059,2.156.159,2.131.26,2.072.361,2.039.47,2.005.554,1.972.646,1.913.755,1.9.831,1.854.923,1.787,1,1.737,1.082,1.686,1.149,1.628,1.25,1.586,1.317,1.519L62.2,200l1.435,1.368,1.519,1.317,1.586,1.25,1.628,1.15,1.686,1.082,1.737,1,1.787.923,1.854.831,1.9.755,1.913.646,1.972.554,2.005.47,2.039.361,2.072.26,2.131.159,2.156.059v27.739l-3.549-.092-3.507-.26-3.482-.445-3.415-.613-3.365-.772-3.3-.94-3.239-1.1-3.138-1.242-3.063-1.384-3-1.527-2.911-1.67-2.811-1.8-2.719-1.938-2.609-2.056-2.509-2.156-2.425-2.307L40.278,217.2l-2.156-2.509-2.056-2.609-1.938-2.719-1.8-2.811-1.67-2.912-1.527-3-1.384-3.063L26.5,194.442,25.4,191.2l-.94-3.3-.772-3.365-.613-3.415-.445-3.482-.26-3.507-.092-3.549h0ZM91.619,101.24v27.739h0l-2.156.059-2.131.159-2.072.26-2.039.361-2.005.47-1.972.554-1.913.646-1.9.755-1.854.831L71.792,134l-1.737,1-1.686,1.082-1.628,1.149-1.569,1.242L63.637,139.8l-1.452,1.368L60.834,142.6l-1.317,1.519-1.25,1.586-1.149,1.628-1.082,1.686-1,1.737-.923,1.787-.831,1.854-.747,1.888-.654,1.93-.554,1.963-.47,2.005-.361,2.047-.26,2.072-.159,2.131-.059,2.156H22.28l.092-3.549.26-3.507.445-3.482.613-3.423.772-3.365.94-3.289,1.091-3.239,1.25-3.146,1.384-3.063,1.527-3,1.67-2.912,1.8-2.811,1.938-2.719,2.056-2.609,2.156-2.509,2.324-2.433,2.408-2.291L47.5,117.09l2.626-2.064,2.719-1.938,2.811-1.8,2.912-1.67,3-1.527,3.063-1.384,3.138-1.242,3.239-1.1,3.3-.94,3.365-.772,3.415-.613,3.482-.445,3.507-.26,3.549-.092h0Z" transform="translate(-22.28 -101.24)"/>
        </g>
        <g id="Grupo_12" data-name="Grupo 12" transform="translate(110.788 69.314)">
          <path id="Trazado_39" data-name="Trazado 39" d="M154.32,252.073l.151-68.223,27.739.067-.151,68.223Z" transform="translate(-154.32 -183.85)"/>
        </g>
      </g>
      <g id="o-2" data-name="o" transform="translate(500.913 60.314)">
        <path id="Trazado_40" data-name="Trazado 40" d="M762.14,181.27H734.572l-.053-2.152-.158-2.1-.264-2.047-.369-2.038-.466-2.012-.553-1.959-.65-1.915-.729-1.871-.826-1.819-.922-1.792-.993-1.731-1.072-1.669-1.16-1.634-1.221-1.555-1.318-1.511-1.371-1.45-1.423-1.353-1.511-1.309-1.573-1.239-1.608-1.142-1.669-1.072-1.748-1-1.792-.922-1.819-.826-1.88-.729-1.906-.65-1.942-.553-2.029-.466-2.038-.369-2.047-.264-2.1-.158-2.152-.053V112.34l3.523.088,3.505.264,3.47.439,3.391.615,3.312.764,3.295.922,3.207,1.089,3.128,1.239,3.066,1.388,2.969,1.52,2.873,1.652,2.811,1.792,2.715,1.933,2.592,2.047,2.5,2.152,2.407,2.3,2.267,2.381,2.161,2.5,2.047,2.609,1.915,2.688,1.792,2.794,1.66,2.89,1.52,2.969,1.388,3.066,1.239,3.136,1.089,3.215.922,3.277.764,3.312.615,3.391.439,3.47.263,3.505.088,3.523h0ZM693.21,250.2V222.632h0l2.152-.053,2.1-.158,2.047-.264,2.038-.369,2.029-.466,1.942-.554,1.906-.65,1.88-.729,1.819-.826,1.792-.922,1.748-1,1.669-1.072,1.625-1.151,1.555-1.221,1.511-1.318,1.432-1.362,1.362-1.432,1.318-1.511,1.221-1.555,1.151-1.625,1.072-1.669,1-1.748.922-1.792.826-1.819.729-1.88.65-1.906.553-1.942.466-2.029.369-2.038.264-2.047.158-2.1.053-2.152H762.14l-.088,3.523-.263,3.505-.439,3.47-.615,3.391-.764,3.312-.922,3.295-1.089,3.207L756.72,208.1l-1.388,3.066-1.52,2.969-1.652,2.873-1.792,2.811-1.924,2.7-2.047,2.609-2.161,2.5-2.275,2.4-2.4,2.275-2.5,2.161-2.609,2.047-2.7,1.924-2.811,1.792-2.873,1.652-2.969,1.52-3.066,1.388-3.128,1.239-3.207,1.089-3.295.922-3.312.764-3.391.615-3.47.439-3.505.264-3.523.088h0Zm-68.93-68.93h27.568l.053,2.152.158,2.1.264,2.047.369,2.038.466,2.029.553,1.942.65,1.906.729,1.88.826,1.819.922,1.792,1,1.748,1.072,1.669,1.151,1.625,1.221,1.555,1.318,1.511,1.362,1.432,1.432,1.362,1.511,1.318,1.555,1.221,1.625,1.151,1.669,1.072,1.748,1,1.792.922,1.819.826,1.88.729,1.906.65,1.942.553,2.029.466,2.038.369,2.047.264,2.1.158,2.153.053V250.2l-3.523-.088-3.505-.264-3.47-.439-3.391-.615-3.312-.764-3.294-.922-3.207-1.089-3.128-1.239-3.066-1.388-2.969-1.52-2.873-1.652-2.811-1.792-2.7-1.924-2.609-2.047-2.5-2.161-2.4-2.275-2.275-2.4-2.161-2.5-2.047-2.609-1.924-2.7-1.792-2.811-1.652-2.873-1.52-2.969L629.7,208.1l-1.239-3.128-1.089-3.207-.922-3.295-.764-3.312-.615-3.391-.439-3.47-.264-3.505-.088-3.523h0Zm68.93-68.93v27.568h0l-2.153.053-2.1.158-2.047.264-2.038.369-2.029.466-1.942.553-1.906.65-1.88.729-1.819.826-1.792.922-1.748,1-1.669,1.072-1.608,1.142-1.573,1.239-1.511,1.309-1.423,1.353-1.371,1.45-1.318,1.511-1.221,1.555-1.16,1.634-1.072,1.669-.993,1.731-.922,1.792-.826,1.819-.729,1.871-.65,1.915-.553,1.959-.466,2.012-.369,2.038-.264,2.047-.158,2.1-.053,2.152H624.28l.088-3.523.264-3.505.439-3.47.615-3.391.764-3.312.922-3.277,1.089-3.215,1.239-3.136,1.388-3.066,1.52-2.969,1.66-2.89,1.792-2.794,1.915-2.688,2.047-2.609,2.161-2.5,2.267-2.381,2.407-2.3,2.5-2.152,2.592-2.047,2.715-1.933,2.811-1.792,2.873-1.652,2.969-1.52,3.066-1.388,3.128-1.239,3.207-1.089,3.294-.922,3.312-.764,3.391-.615,3.47-.439,3.505-.264,3.523-.088Z" transform="translate(-624.28 -112.34)"/>
      </g>
      <g id="m" transform="translate(646.907 58.604)">
        <path id="Trazado_41" data-name="Trazado 41" d="M1018.024,172.673V262.9h-35.29V181.88q0-26.4-23.637-26.394-20.256,0-28.547,15.959c0,.614.057,2.2.16,4.75s.151,4.353.151,5.373V262.9h-35.3V179.425q0-11.049-5.978-17.5t-17.036-6.44q-19.038,0-28.85,14.732V262.9H808.4V124.8h35.3v15.345q15.95-17.805,43.269-17.8,15.355,0,25.78,6.138t14.43,15.959q16.885-22.1,46.65-22.1,44.195,0,44.195,50.333Z" transform="translate(-808.4 -122.34)"/>
      </g>
      <g id="e" transform="translate(864.553 57.432)">
        <path id="_1-2" data-name="1" d="M1176.248,224.18l10.123,24.855q-20.256,17.2-52.788,17.2-33.444,0-53.865-19.954t-20.407-52.486q0-30.993,19.954-51.712t53.09-20.719q27.324,0,46.348,17.952t19.028,46.2q0,11.658-2.153,19.028h-99.741q2.139,15.341,13.5,23.788,11.346,8.428,27.924,8.433,23.33,0,38.983-12.579Zm-45.423-73.356q-30.087,0-36.215,30.077h67.822q.312-12.89-8.282-21.484T1130.825,150.823Z" transform="translate(-1059.31 -121.36)"/>
      </g>
      <g id="z" transform="translate(1008.414 61.714)">
        <path id="_2" data-name="2" d="M1228.7,158.086V124.94h119.695v25.469l-74.886,79.8h73.347v32.844H1224.091V237.571l74.886-79.485Z" transform="translate(-1224.091 -124.94)"/>
      </g>
    </g>
  </g>
</svg>
