<svg xmlns="http://www.w3.org/2000/svg" width="61.646" height="41.866" viewBox="0 0 61.646 41.866"><g transform="translate(0 0)"><path d="M454.154,82.53a2.721,2.721,0,0,0-.7.087v.034h.033a5.784,5.784,0,0,0,.55.7c.138.274.259.549.4.823l.033-.034a.963.963,0,0,0,.362-.858,3.916,3.916,0,0,1-.206-.361C454.515,82.754,454.292,82.668,454.154,82.53Z" transform="translate(-412.014 -78.284)" fill="#687889" fill-rule="evenodd"/><path d="M42.481,299H40.1q-.126-6.023-.695-11.327h-.02L35.765,299H33.954l-3.6-11.327h-.02q-.4,5.094-.505,11.327H27.66q.21-7.58,1.052-14.212h2.949l3.431,10.442h.021l3.453-10.442h2.82q.927,7.767,1.095,14.212Z" transform="translate(-27.66 -260.861)" fill="#2b7a93"/><path d="M199.258,323.08q-1.454,7.884-3.832,11.458-1.854,2.753-4.063,2.753a3.991,3.991,0,0,1-1.453-.353v-1.267a6.951,6.951,0,0,0,.99.063,2.394,2.394,0,0,0,1.664-.569,2.077,2.077,0,0,0,.757-1.557,10.335,10.335,0,0,0-.59-2.421l-2.61-8.106h2.337l1.873,6.063a8.181,8.181,0,0,1,.526,2.885,39.565,39.565,0,0,0,2.148-8.948Z" transform="translate(-174.121 -295.425)" fill="#2b7a93"/><path d="M548.658,299H541.9V284.79h2.273v12.463h4.484Z" transform="translate(-491.857 -260.861)" fill="#f29434"/><path d="M406.484,294.2a8.756,8.756,0,0,1-.864-4.463q0-5.367,3.263-5.369a2.739,2.739,0,0,1,2.506,1.284,8.669,8.669,0,0,1,.863,4.422q0,5.411-3.263,5.412A2.736,2.736,0,0,1,406.484,294.2Zm8.463,3.186-2.612-1.288a4.9,4.9,0,0,0,.654-.635,8.736,8.736,0,0,0,1.664-5.789q0-7.052-5.537-7.053a5.245,5.245,0,0,0-4.232,1.791,8.7,8.7,0,0,0-1.663,5.769q0,3.747,1.473,5.494a5.05,5.05,0,0,0,4.064,1.579,6.558,6.558,0,0,0,1.861-.25l3.4,1.979Z" transform="translate(-366.672 -258.902)" fill="#f29434" fill-rule="evenodd"/><path d="M310.255,293.3a3.772,3.772,0,0,1-1.325,2.968,5.224,5.224,0,0,1-3.557,1.157,7.134,7.134,0,0,1-4.042-1.326l.61-1.221a6.93,6.93,0,0,0,3.052.842,3.2,3.2,0,0,0,2.011-.566,1.936,1.936,0,0,0,.774-1.578c0-.844-.589-1.565-1.668-2.17-1-.547-2.99-1.689-2.99-1.689a3.4,3.4,0,0,1-1.62-3.024,3.536,3.536,0,0,1,1.21-2.79,4.564,4.564,0,0,1,3.127-1.064,6.472,6.472,0,0,1,3.6,1.053l-.549,1.22a6.969,6.969,0,0,0-2.736-.589,2.438,2.438,0,0,0-1.684.527,1.76,1.76,0,0,0-.637,1.346c0,.842.6,1.572,1.712,2.189,1.009.547,3.05,1.712,3.05,1.712A3.356,3.356,0,0,1,310.255,293.3Z" transform="translate(-274.698 -259.101)" fill="#f29434"/><path d="M424.95,58.07a7.951,7.951,0,0,0-3.331.481c-.258.1-.67.1-.7.429.138.137.155.36.275.55a4.024,4.024,0,0,0,.892,1.048c.361.274.721.548,1.1.788.67.415,1.425.654,2.077,1.066.379.24.755.549,1.135.808.188.137.308.361.549.446v-.053c-.122-.154-.155-.377-.274-.55-.171-.17-.344-.326-.516-.5a8.177,8.177,0,0,0-1.786-1.734c-.55-.379-1.752-.894-1.975-1.527l-.035-.035a6.923,6.923,0,0,0,1.185-.277c.583-.154,1.115-.119,1.717-.273.275-.069.55-.156.826-.239v-.156c-.311-.308-.533-.721-.859-1.013a23.068,23.068,0,0,0-2.834-2.112c-.533-.344-1.219-.566-1.787-.858-.205-.1-.548-.155-.669-.327a6.861,6.861,0,0,1-.7-1.323c-.5-.943-.979-1.99-1.408-2.988a18.116,18.116,0,0,0-.876-1.957,17.3,17.3,0,0,0-6.645-6.422,8.236,8.236,0,0,0-2.2-.7c-.43-.018-.859-.052-1.288-.068a7.006,7.006,0,0,1-.79-.6c-.979-.618-3.5-1.957-4.223-.189-.464,1.117.687,2.215,1.082,2.782a8.106,8.106,0,0,1,.875,1.287c.12.292.155.6.275.91a20.349,20.349,0,0,0,.893,2.3,8.042,8.042,0,0,0,.634,1.064c.139.19.379.274.43.585A4.931,4.931,0,0,0,405.6,50a7.561,7.561,0,0,0,.5,5.77c.273.429.927,1.373,1.8,1.012.773-.308.6-1.287.823-2.146.052-.207.018-.344.12-.481v.035c.24.48.482.943.7,1.425a9.794,9.794,0,0,0,2.233,2.3c.411.31.737.842,1.252,1.032v-.052H413a1.882,1.882,0,0,0-.4-.344,8.488,8.488,0,0,1-.893-1.03,22.076,22.076,0,0,1-1.922-3.126c-.275-.533-.516-1.117-.739-1.649-.1-.205-.1-.516-.275-.618a6.468,6.468,0,0,0-.823,1.166,9.684,9.684,0,0,0-.482,2.594c-.068.018-.034,0-.068.034-.549-.137-.738-.7-.945-1.183a7.428,7.428,0,0,1-.154-4.586c.12-.359.635-1.493.429-1.836-.1-.328-.447-.515-.635-.774a6.816,6.816,0,0,1-.618-1.1c-.412-.961-.619-2.026-1.065-2.988a9.157,9.157,0,0,0-.858-1.322,8.526,8.526,0,0,1-.945-1.339c-.086-.19-.205-.5-.069-.7a.276.276,0,0,1,.241-.224c.222-.189.858.052,1.081.155a8.712,8.712,0,0,1,1.7.858c.241.172.5.5.807.585h.362c.549.12,1.168.033,1.683.189a10.963,10.963,0,0,1,2.473,1.184,15.238,15.238,0,0,1,5.356,5.873c.206.394.293.755.482,1.167.361.843.808,1.7,1.167,2.524a11.292,11.292,0,0,0,1.22,2.3c.257.36,1.288.549,1.752.738a12.391,12.391,0,0,1,1.185.481c.583.36,1.166.773,1.717,1.168.273.206,1.133.635,1.184.979Z" transform="translate(-365.296 -38.902)" fill="#2b7a93" fill-rule="evenodd"/><path d="M623.262,414.661h.378v-1.446h.492v-.295H622.75v.295h.512Zm2.868,0h.355V412.92h-.534l-.435,1.186-.473-1.186h-.515v1.741h.336v-1.325h.019l.5,1.325h.256l.5-1.325Z" transform="translate(-564.839 -376.522)" fill="#f29434"/></g></svg>