<svg xmlns="http://www.w3.org/2000/svg" xmlns:xlink="http://www.w3.org/1999/xlink" width="74.428" height="41.866" viewBox="0 0 74.428 41.866"><defs><clipPath id="a"><path d="M14.4-365.506c0,10.379,16,18.793,35.726,18.793h0c19.73,0,35.726-8.414,35.726-18.793h0c0-10.379-16-18.793-35.726-18.793h0c-19.73,0-35.726,8.414-35.726,18.793" transform="translate(-14.4 384.299)"/></clipPath><radialGradient id="b" cx="0.628" cy="0.8" r="1.248" gradientTransform="translate(-0.009 0.511) scale(0.526 1)" gradientUnits="objectBoundingBox"><stop offset="0" stop-color="#aeb2d5"/><stop offset="0.3" stop-color="#aeb2d5"/><stop offset="0.75" stop-color="#484c89"/><stop offset="1" stop-color="#484c89"/></radialGradient><clipPath id="c"><path d="M0-405H74.428v41.866H0Z" transform="translate(0 405)"/></clipPath></defs><g transform="translate(1.489 2.14)"><g transform="translate(0 0)" clip-path="url(#a)"><path d="M14.4-365.506c0,10.379,16,18.793,35.726,18.793h0c19.73,0,35.726-8.414,35.726-18.793h0c0-10.379-16-18.793-35.726-18.793h0c-19.73,0-35.726,8.414-35.726,18.793" transform="translate(-14.4 384.299)" fill="url(#b)"/></g></g><g transform="translate(0 0)"><g clip-path="url(#c)"><g transform="translate(2.884 3.535)"><path d="M-297.77-301.807c18.96,0,34.33-7.789,34.33-17.4s-15.37-17.4-34.33-17.4-34.33,7.789-34.33,17.4,15.37,17.4,34.33,17.4" transform="translate(332.1 336.603)" fill="#777bb3"/></g></g></g><g transform="translate(0 0)"><g clip-path="url(#c)"><g transform="translate(12.362 12.236)"><path d="M-74.041-94.146A5.7,5.7,0,0,0-70.582-95a4.623,4.623,0,0,0,1.5-2.888,3.11,3.11,0,0,0-.278-2.629c-.44-.488-1.392-.735-2.829-.735h-2.491l-1.381,7.107Zm-8.149,8.754a.387.387,0,0,1-.3-.141.387.387,0,0,1-.081-.32l3.66-18.833A.388.388,0,0,1-78.53-105h7.889c2.479,0,4.325.673,5.485,2s1.526,3.2,1.07,5.546a8.852,8.852,0,0,1-.949,2.637,8.83,8.83,0,0,1-1.746,2.188,7.659,7.659,0,0,1-2.873,1.722A13.015,13.015,0,0,1-73.6-90.4h-3.194l-.912,4.693a.388.388,0,0,1-.38.314Z" transform="translate(82.578 105)"/></g><g transform="translate(11.975 11.848)"><path d="M-74.59-39.227h2.172c1.734,0,2.337.381,2.541.607a2.847,2.847,0,0,1,.185,2.3,4.262,4.262,0,0,1-1.351,2.655,5.344,5.344,0,0,1-3.223.774H-75.82Zm3.725-4.523h-7.889a.775.775,0,0,0-.761.627l-3.66,18.833a.775.775,0,0,0,.163.641.775.775,0,0,0,.6.282h4.1a.775.775,0,0,0,.761-.627l.851-4.38h2.875a13.394,13.394,0,0,0,4.068-.527,8.046,8.046,0,0,0,3.018-1.807,9.221,9.221,0,0,0,1.819-2.282,9.239,9.239,0,0,0,.991-2.753c.48-2.469.09-4.445-1.159-5.875s-3.181-2.134-5.777-2.134m-5.9,11.629h2.5a6.026,6.026,0,0,0,3.7-.935,4.964,4.964,0,0,0,1.639-3.121q.407-2.1-.371-2.963T-72.418-40h-2.811l-1.532,7.882m5.9-10.854q3.56,0,5.193,1.869t.982,5.217a8.432,8.432,0,0,1-.906,2.522,8.411,8.411,0,0,1-1.67,2.091A7.246,7.246,0,0,1-70-29.637a12.576,12.576,0,0,1-3.827.489h-3.514l-.973,5.007h-4.1l3.66-18.833h7.889" transform="translate(83.189 43.75)" fill="#fff"/></g><g transform="translate(29.827 7.229)"><path d="M-90.5-170.079a.387.387,0,0,1-.3-.141.387.387,0,0,1-.082-.32l1.619-8.333c.154-.792.116-1.361-.107-1.6-.136-.147-.546-.393-1.758-.393h-2.933L-96.1-170.393a.388.388,0,0,1-.381.314h-4.07a.387.387,0,0,1-.3-.141.387.387,0,0,1-.081-.32l3.66-18.833a.388.388,0,0,1,.381-.314h4.07a.388.388,0,0,1,.3.141.388.388,0,0,1,.081.321l-.883,4.546h3.156c2.4,0,4.034.424,4.984,1.3.968.89,1.27,2.312.9,4.228l-1.7,8.764a.388.388,0,0,1-.381.314Z" transform="translate(100.938 189.688)"/></g><g transform="translate(29.44 6.841)"><path d="M-73.779,0h-4.07a.775.775,0,0,0-.761.627l-3.66,18.833a.775.775,0,0,0,.163.641.775.775,0,0,0,.6.282h4.07a.775.775,0,0,0,.761-.627L-74.7,9.594h2.614c1.21,0,1.464.258,1.474.27.073.079.17.445.011,1.264l-1.619,8.333a.775.775,0,0,0,.163.641.775.775,0,0,0,.6.282h4.135a.775.775,0,0,0,.761-.627l1.7-8.764c.4-2.057.058-3.6-1.016-4.587-1.024-.941-2.74-1.4-5.246-1.4h-2.686l.794-4.084a.775.775,0,0,0-.163-.641.775.775,0,0,0-.6-.282m0,.775-.973,5.007h3.626q3.422,0,4.721,1.194t.779,3.868l-1.7,8.764h-4.135l1.619-8.333a2.261,2.261,0,0,0-.2-1.939,2.86,2.86,0,0,0-2.042-.517h-3.253l-2.1,10.79h-4.07L-77.85.775h4.07" transform="translate(82.285)" fill="#fff"/></g><g transform="translate(44.384 12.236)"><path d="M-74.041-94.146A5.7,5.7,0,0,0-70.582-95a4.623,4.623,0,0,0,1.5-2.888,3.109,3.109,0,0,0-.278-2.629c-.44-.488-1.392-.735-2.829-.735h-2.491l-1.381,7.107Zm-8.149,8.754a.387.387,0,0,1-.3-.141.387.387,0,0,1-.082-.32l3.66-18.833a.388.388,0,0,1,.381-.314h7.889c2.48,0,4.325.673,5.485,2s1.526,3.2,1.07,5.546a8.86,8.86,0,0,1-.949,2.637,8.83,8.83,0,0,1-1.746,2.188,7.659,7.659,0,0,1-2.873,1.722A13.015,13.015,0,0,1-73.6-90.4h-3.195l-.912,4.693a.388.388,0,0,1-.381.314Z" transform="translate(82.578 105)"/></g><g transform="translate(43.996 11.848)"><path d="M-74.589-39.227h2.172c1.734,0,2.337.381,2.541.607a2.846,2.846,0,0,1,.185,2.3,4.262,4.262,0,0,1-1.351,2.655,5.344,5.344,0,0,1-3.223.774h-1.555Zm3.725-4.523h-7.889a.775.775,0,0,0-.761.627l-3.66,18.833a.775.775,0,0,0,.163.641.775.775,0,0,0,.6.282h4.1a.775.775,0,0,0,.761-.627l.851-4.38h2.875a13.394,13.394,0,0,0,4.068-.527,8.046,8.046,0,0,0,3.018-1.807,9.217,9.217,0,0,0,1.819-2.281,9.239,9.239,0,0,0,.991-2.753c.48-2.469.09-4.445-1.159-5.875s-3.18-2.134-5.777-2.134m-5.9,11.629h2.5a6.026,6.026,0,0,0,3.7-.935,4.964,4.964,0,0,0,1.639-3.121q.407-2.1-.371-2.963T-72.417-40h-2.811l-1.532,7.882m5.9-10.854q3.56,0,5.193,1.869t.982,5.217a8.432,8.432,0,0,1-.906,2.522,8.411,8.411,0,0,1-1.67,2.091A7.246,7.246,0,0,1-70-29.637a12.576,12.576,0,0,1-3.827.489h-3.514l-.973,5.007h-4.1l3.66-18.833h7.889" transform="translate(83.188 43.75)" fill="#fff"/></g></g></g></svg>