<svg xmlns="http://www.w3.org/2000/svg" xmlns:xlink="http://www.w3.org/1999/xlink" width="1574.849" height="947.175" viewBox="0 0 1574.849 947.175"><defs><clipPath id="a"><rect width="1574.849" height="947.175" fill="none"/></clipPath></defs><g clip-path="url(#a)"><g transform="translate(-0.139 -12.912)"><g transform="translate(-471 -252)"><path d="M81.011,7.96l-25,87.5A6.256,6.256,0,0,1,43.982,92.02l25-87.494A6.255,6.255,0,0,1,81.011,7.96ZM101.284,23.7l21.874,21.874a6.236,6.236,0,0,1,0,8.828L101.284,76.279a6.242,6.242,0,0,1-8.828-8.828L109.9,49.991,92.456,32.531a6.242,6.242,0,0,1,8.828-8.828ZM32.537,32.531l-17.45,17.46,17.45,17.46a6.242,6.242,0,1,1-8.828,8.828L1.83,54.4a6.237,6.237,0,0,1,0-8.828L23.71,23.7a6.242,6.242,0,1,1,8.828,8.828Z" transform="translate(641 284.008)" fill="#5affd8"/></g><g transform="translate(42.987 -47.5) rotate(25)"><path d="M103.125,0H9.375A9.377,9.377,0,0,0,0,9.375v62.5A9.377,9.377,0,0,0,9.375,81.25h37.5L43.75,90.625H29.688a4.688,4.688,0,0,0,0,9.375H82.813a4.688,4.688,0,0,0,0-9.375H68.75L65.625,81.25h37.5a9.377,9.377,0,0,0,9.375-9.375V9.375A9.377,9.377,0,0,0,103.125,0ZM100,56.25H12.5V12.5H100Z" transform="translate(25 55)" fill="#5affd8"/></g><g transform="translate(-151 -252)"><path d="M81.011,7.96l-25,87.5A6.256,6.256,0,0,1,43.982,92.02l25-87.494A6.255,6.255,0,0,1,81.011,7.96ZM101.284,23.7l21.874,21.874a6.236,6.236,0,0,1,0,8.828L101.284,76.279a6.242,6.242,0,0,1-8.828-8.828L109.9,49.991,92.456,32.531a6.242,6.242,0,0,1,8.828-8.828ZM32.537,32.531l-17.45,17.46,17.45,17.46a6.242,6.242,0,1,1-8.828,8.828L1.83,54.4a6.237,6.237,0,0,1,0-8.828L23.71,23.7a6.242,6.242,0,1,1,8.828,8.828Z" transform="translate(641 284.008)" fill="#5affd8"/></g><g transform="translate(274.238 21.175) rotate(-25)"><path d="M103.125,0H9.375A9.377,9.377,0,0,0,0,9.375v62.5A9.377,9.377,0,0,0,9.375,81.25h37.5L43.75,90.625H29.688a4.688,4.688,0,0,0,0,9.375H82.813a4.688,4.688,0,0,0,0-9.375H68.75L65.625,81.25h37.5a9.377,9.377,0,0,0,9.375-9.375V9.375A9.377,9.377,0,0,0,103.125,0ZM100,56.25H12.5V12.5H100Z" transform="translate(25 55)" fill="#5affd8"/></g><g transform="translate(169 -252)"><path d="M81.011,7.96l-25,87.5A6.256,6.256,0,0,1,43.982,92.02l25-87.494A6.255,6.255,0,0,1,81.011,7.96ZM101.284,23.7l21.874,21.874a6.236,6.236,0,0,1,0,8.828L101.284,76.279a6.242,6.242,0,0,1-8.828-8.828L109.9,49.991,92.456,32.531a6.242,6.242,0,0,1,8.828-8.828ZM32.537,32.531l-17.45,17.46,17.45,17.46a6.242,6.242,0,1,1-8.828,8.828L1.83,54.4a6.237,6.237,0,0,1,0-8.828L23.71,23.7a6.242,6.242,0,1,1,8.828,8.828Z" transform="translate(641 284.008)" fill="#5affd8"/></g><g transform="translate(682.987 -47.5) rotate(25)"><path d="M103.125,0H9.375A9.377,9.377,0,0,0,0,9.375v62.5A9.377,9.377,0,0,0,9.375,81.25h37.5L43.75,90.625H29.688a4.688,4.688,0,0,0,0,9.375H82.813a4.688,4.688,0,0,0,0-9.375H68.75L65.625,81.25h37.5a9.377,9.377,0,0,0,9.375-9.375V9.375A9.377,9.377,0,0,0,103.125,0ZM100,56.25H12.5V12.5H100Z" transform="translate(25 55)" fill="#5affd8"/></g><g transform="translate(489 -252)"><path d="M81.011,7.96l-25,87.5A6.256,6.256,0,0,1,43.982,92.02l25-87.494A6.255,6.255,0,0,1,81.011,7.96ZM101.284,23.7l21.874,21.874a6.236,6.236,0,0,1,0,8.828L101.284,76.279a6.242,6.242,0,0,1-8.828-8.828L109.9,49.991,92.456,32.531a6.242,6.242,0,0,1,8.828-8.828ZM32.537,32.531l-17.45,17.46,17.45,17.46a6.242,6.242,0,1,1-8.828,8.828L1.83,54.4a6.237,6.237,0,0,1,0-8.828L23.71,23.7a6.242,6.242,0,1,1,8.828,8.828Z" transform="translate(641 284.008)" fill="#5affd8"/></g><g transform="translate(914.238 21.175) rotate(-25)"><path d="M103.125,0H9.375A9.377,9.377,0,0,0,0,9.375v62.5A9.377,9.377,0,0,0,9.375,81.25h37.5L43.75,90.625H29.688a4.688,4.688,0,0,0,0,9.375H82.813a4.688,4.688,0,0,0,0-9.375H68.75L65.625,81.25h37.5a9.377,9.377,0,0,0,9.375-9.375V9.375A9.377,9.377,0,0,0,103.125,0ZM100,56.25H12.5V12.5H100Z" transform="translate(25 55)" fill="#5affd8"/></g><g transform="translate(809 -252)"><path d="M81.011,7.96l-25,87.5A6.256,6.256,0,0,1,43.982,92.02l25-87.494A6.255,6.255,0,0,1,81.011,7.96ZM101.284,23.7l21.874,21.874a6.236,6.236,0,0,1,0,8.828L101.284,76.279a6.242,6.242,0,0,1-8.828-8.828L109.9,49.991,92.456,32.531a6.242,6.242,0,0,1,8.828-8.828ZM32.537,32.531l-17.45,17.46,17.45,17.46a6.242,6.242,0,1,1-8.828,8.828L1.83,54.4a6.237,6.237,0,0,1,0-8.828L23.71,23.7a6.242,6.242,0,1,1,8.828,8.828Z" transform="translate(641 284.008)" fill="#5affd8"/></g><g transform="translate(1322.987 -47.5) rotate(25)"><path d="M103.125,0H9.375A9.377,9.377,0,0,0,0,9.375v62.5A9.377,9.377,0,0,0,9.375,81.25h37.5L43.75,90.625H29.688a4.688,4.688,0,0,0,0,9.375H82.813a4.688,4.688,0,0,0,0-9.375H68.75L65.625,81.25h37.5a9.377,9.377,0,0,0,9.375-9.375V9.375A9.377,9.377,0,0,0,103.125,0ZM100,56.25H12.5V12.5H100Z" transform="translate(25 55)" fill="#5affd8"/></g></g><g transform="translate(-0.139 146.088)"><g transform="translate(-471 -252)"><path d="M81.011,7.96l-25,87.5A6.256,6.256,0,0,1,43.982,92.02l25-87.494A6.255,6.255,0,0,1,81.011,7.96ZM101.284,23.7l21.874,21.874a6.236,6.236,0,0,1,0,8.828L101.284,76.279a6.242,6.242,0,0,1-8.828-8.828L109.9,49.991,92.456,32.531a6.242,6.242,0,0,1,8.828-8.828ZM32.537,32.531l-17.45,17.46,17.45,17.46a6.242,6.242,0,1,1-8.828,8.828L1.83,54.4a6.237,6.237,0,0,1,0-8.828L23.71,23.7a6.242,6.242,0,1,1,8.828,8.828Z" transform="translate(641 284.008)" fill="#5affd8"/></g><g transform="translate(42.987 -47.5) rotate(25)"><path d="M103.125,0H9.375A9.377,9.377,0,0,0,0,9.375v62.5A9.377,9.377,0,0,0,9.375,81.25h37.5L43.75,90.625H29.688a4.688,4.688,0,0,0,0,9.375H82.813a4.688,4.688,0,0,0,0-9.375H68.75L65.625,81.25h37.5a9.377,9.377,0,0,0,9.375-9.375V9.375A9.377,9.377,0,0,0,103.125,0ZM100,56.25H12.5V12.5H100Z" transform="translate(25 55)" fill="#5affd8"/></g><g transform="translate(-151 -252)"><path d="M81.011,7.96l-25,87.5A6.256,6.256,0,0,1,43.982,92.02l25-87.494A6.255,6.255,0,0,1,81.011,7.96ZM101.284,23.7l21.874,21.874a6.236,6.236,0,0,1,0,8.828L101.284,76.279a6.242,6.242,0,0,1-8.828-8.828L109.9,49.991,92.456,32.531a6.242,6.242,0,0,1,8.828-8.828ZM32.537,32.531l-17.45,17.46,17.45,17.46a6.242,6.242,0,1,1-8.828,8.828L1.83,54.4a6.237,6.237,0,0,1,0-8.828L23.71,23.7a6.242,6.242,0,1,1,8.828,8.828Z" transform="translate(641 284.008)" fill="#5affd8"/></g><g transform="translate(274.238 21.175) rotate(-25)"><path d="M103.125,0H9.375A9.377,9.377,0,0,0,0,9.375v62.5A9.377,9.377,0,0,0,9.375,81.25h37.5L43.75,90.625H29.688a4.688,4.688,0,0,0,0,9.375H82.813a4.688,4.688,0,0,0,0-9.375H68.75L65.625,81.25h37.5a9.377,9.377,0,0,0,9.375-9.375V9.375A9.377,9.377,0,0,0,103.125,0ZM100,56.25H12.5V12.5H100Z" transform="translate(25 55)" fill="#5affd8"/></g><g transform="translate(169 -252)"><path d="M81.011,7.96l-25,87.5A6.256,6.256,0,0,1,43.982,92.02l25-87.494A6.255,6.255,0,0,1,81.011,7.96ZM101.284,23.7l21.874,21.874a6.236,6.236,0,0,1,0,8.828L101.284,76.279a6.242,6.242,0,0,1-8.828-8.828L109.9,49.991,92.456,32.531a6.242,6.242,0,0,1,8.828-8.828ZM32.537,32.531l-17.45,17.46,17.45,17.46a6.242,6.242,0,1,1-8.828,8.828L1.83,54.4a6.237,6.237,0,0,1,0-8.828L23.71,23.7a6.242,6.242,0,1,1,8.828,8.828Z" transform="translate(641 284.008)" fill="#5affd8"/></g><g transform="translate(682.987 -47.5) rotate(25)"><path d="M103.125,0H9.375A9.377,9.377,0,0,0,0,9.375v62.5A9.377,9.377,0,0,0,9.375,81.25h37.5L43.75,90.625H29.688a4.688,4.688,0,0,0,0,9.375H82.813a4.688,4.688,0,0,0,0-9.375H68.75L65.625,81.25h37.5a9.377,9.377,0,0,0,9.375-9.375V9.375A9.377,9.377,0,0,0,103.125,0ZM100,56.25H12.5V12.5H100Z" transform="translate(25 55)" fill="#5affd8"/></g><g transform="translate(489 -252)"><path d="M81.011,7.96l-25,87.5A6.256,6.256,0,0,1,43.982,92.02l25-87.494A6.255,6.255,0,0,1,81.011,7.96ZM101.284,23.7l21.874,21.874a6.236,6.236,0,0,1,0,8.828L101.284,76.279a6.242,6.242,0,0,1-8.828-8.828L109.9,49.991,92.456,32.531a6.242,6.242,0,0,1,8.828-8.828ZM32.537,32.531l-17.45,17.46,17.45,17.46a6.242,6.242,0,1,1-8.828,8.828L1.83,54.4a6.237,6.237,0,0,1,0-8.828L23.71,23.7a6.242,6.242,0,1,1,8.828,8.828Z" transform="translate(641 284.008)" fill="#5affd8"/></g><g transform="translate(914.238 21.175) rotate(-25)"><path d="M103.125,0H9.375A9.377,9.377,0,0,0,0,9.375v62.5A9.377,9.377,0,0,0,9.375,81.25h37.5L43.75,90.625H29.688a4.688,4.688,0,0,0,0,9.375H82.813a4.688,4.688,0,0,0,0-9.375H68.75L65.625,81.25h37.5a9.377,9.377,0,0,0,9.375-9.375V9.375A9.377,9.377,0,0,0,103.125,0ZM100,56.25H12.5V12.5H100Z" transform="translate(25 55)" fill="#5affd8"/></g><g transform="translate(809 -252)"><path d="M81.011,7.96l-25,87.5A6.256,6.256,0,0,1,43.982,92.02l25-87.494A6.255,6.255,0,0,1,81.011,7.96ZM101.284,23.7l21.874,21.874a6.236,6.236,0,0,1,0,8.828L101.284,76.279a6.242,6.242,0,0,1-8.828-8.828L109.9,49.991,92.456,32.531a6.242,6.242,0,0,1,8.828-8.828ZM32.537,32.531l-17.45,17.46,17.45,17.46a6.242,6.242,0,1,1-8.828,8.828L1.83,54.4a6.237,6.237,0,0,1,0-8.828L23.71,23.7a6.242,6.242,0,1,1,8.828,8.828Z" transform="translate(641 284.008)" fill="#5affd8"/></g><g transform="translate(1322.987 -47.5) rotate(25)"><path d="M103.125,0H9.375A9.377,9.377,0,0,0,0,9.375v62.5A9.377,9.377,0,0,0,9.375,81.25h37.5L43.75,90.625H29.688a4.688,4.688,0,0,0,0,9.375H82.813a4.688,4.688,0,0,0,0-9.375H68.75L65.625,81.25h37.5a9.377,9.377,0,0,0,9.375-9.375V9.375A9.377,9.377,0,0,0,103.125,0ZM100,56.25H12.5V12.5H100Z" transform="translate(25 55)" fill="#5affd8"/></g></g><g transform="translate(-0.139 305.088)"><g transform="translate(-471 -252)"><path d="M81.011,7.96l-25,87.5A6.256,6.256,0,0,1,43.982,92.02l25-87.494A6.255,6.255,0,0,1,81.011,7.96ZM101.284,23.7l21.874,21.874a6.236,6.236,0,0,1,0,8.828L101.284,76.279a6.242,6.242,0,0,1-8.828-8.828L109.9,49.991,92.456,32.531a6.242,6.242,0,0,1,8.828-8.828ZM32.537,32.531l-17.45,17.46,17.45,17.46a6.242,6.242,0,1,1-8.828,8.828L1.83,54.4a6.237,6.237,0,0,1,0-8.828L23.71,23.7a6.242,6.242,0,1,1,8.828,8.828Z" transform="translate(641 284.008)" fill="#5affd8"/></g><g transform="translate(42.987 -47.5) rotate(25)"><path d="M103.125,0H9.375A9.377,9.377,0,0,0,0,9.375v62.5A9.377,9.377,0,0,0,9.375,81.25h37.5L43.75,90.625H29.688a4.688,4.688,0,0,0,0,9.375H82.813a4.688,4.688,0,0,0,0-9.375H68.75L65.625,81.25h37.5a9.377,9.377,0,0,0,9.375-9.375V9.375A9.377,9.377,0,0,0,103.125,0ZM100,56.25H12.5V12.5H100Z" transform="translate(25 55)" fill="#5affd8"/></g><g transform="translate(-151 -252)"><path d="M81.011,7.96l-25,87.5A6.256,6.256,0,0,1,43.982,92.02l25-87.494A6.255,6.255,0,0,1,81.011,7.96ZM101.284,23.7l21.874,21.874a6.236,6.236,0,0,1,0,8.828L101.284,76.279a6.242,6.242,0,0,1-8.828-8.828L109.9,49.991,92.456,32.531a6.242,6.242,0,0,1,8.828-8.828ZM32.537,32.531l-17.45,17.46,17.45,17.46a6.242,6.242,0,1,1-8.828,8.828L1.83,54.4a6.237,6.237,0,0,1,0-8.828L23.71,23.7a6.242,6.242,0,1,1,8.828,8.828Z" transform="translate(641 284.008)" fill="#5affd8"/></g><g transform="translate(274.238 21.175) rotate(-25)"><path d="M103.125,0H9.375A9.377,9.377,0,0,0,0,9.375v62.5A9.377,9.377,0,0,0,9.375,81.25h37.5L43.75,90.625H29.688a4.688,4.688,0,0,0,0,9.375H82.813a4.688,4.688,0,0,0,0-9.375H68.75L65.625,81.25h37.5a9.377,9.377,0,0,0,9.375-9.375V9.375A9.377,9.377,0,0,0,103.125,0ZM100,56.25H12.5V12.5H100Z" transform="translate(25 55)" fill="#5affd8"/></g><g transform="translate(169 -252)"><path d="M81.011,7.96l-25,87.5A6.256,6.256,0,0,1,43.982,92.02l25-87.494A6.255,6.255,0,0,1,81.011,7.96ZM101.284,23.7l21.874,21.874a6.236,6.236,0,0,1,0,8.828L101.284,76.279a6.242,6.242,0,0,1-8.828-8.828L109.9,49.991,92.456,32.531a6.242,6.242,0,0,1,8.828-8.828ZM32.537,32.531l-17.45,17.46,17.45,17.46a6.242,6.242,0,1,1-8.828,8.828L1.83,54.4a6.237,6.237,0,0,1,0-8.828L23.71,23.7a6.242,6.242,0,1,1,8.828,8.828Z" transform="translate(641 284.008)" fill="#5affd8"/></g><g transform="translate(682.987 -47.5) rotate(25)"><path d="M103.125,0H9.375A9.377,9.377,0,0,0,0,9.375v62.5A9.377,9.377,0,0,0,9.375,81.25h37.5L43.75,90.625H29.688a4.688,4.688,0,0,0,0,9.375H82.813a4.688,4.688,0,0,0,0-9.375H68.75L65.625,81.25h37.5a9.377,9.377,0,0,0,9.375-9.375V9.375A9.377,9.377,0,0,0,103.125,0ZM100,56.25H12.5V12.5H100Z" transform="translate(25 55)" fill="#5affd8"/></g><g transform="translate(489 -252)"><path d="M81.011,7.96l-25,87.5A6.256,6.256,0,0,1,43.982,92.02l25-87.494A6.255,6.255,0,0,1,81.011,7.96ZM101.284,23.7l21.874,21.874a6.236,6.236,0,0,1,0,8.828L101.284,76.279a6.242,6.242,0,0,1-8.828-8.828L109.9,49.991,92.456,32.531a6.242,6.242,0,0,1,8.828-8.828ZM32.537,32.531l-17.45,17.46,17.45,17.46a6.242,6.242,0,1,1-8.828,8.828L1.83,54.4a6.237,6.237,0,0,1,0-8.828L23.71,23.7a6.242,6.242,0,1,1,8.828,8.828Z" transform="translate(641 284.008)" fill="#5affd8"/></g><g transform="translate(914.238 21.175) rotate(-25)"><path d="M103.125,0H9.375A9.377,9.377,0,0,0,0,9.375v62.5A9.377,9.377,0,0,0,9.375,81.25h37.5L43.75,90.625H29.688a4.688,4.688,0,0,0,0,9.375H82.813a4.688,4.688,0,0,0,0-9.375H68.75L65.625,81.25h37.5a9.377,9.377,0,0,0,9.375-9.375V9.375A9.377,9.377,0,0,0,103.125,0ZM100,56.25H12.5V12.5H100Z" transform="translate(25 55)" fill="#5affd8"/></g><g transform="translate(809 -252)"><path d="M81.011,7.96l-25,87.5A6.256,6.256,0,0,1,43.982,92.02l25-87.494A6.255,6.255,0,0,1,81.011,7.96ZM101.284,23.7l21.874,21.874a6.236,6.236,0,0,1,0,8.828L101.284,76.279a6.242,6.242,0,0,1-8.828-8.828L109.9,49.991,92.456,32.531a6.242,6.242,0,0,1,8.828-8.828ZM32.537,32.531l-17.45,17.46,17.45,17.46a6.242,6.242,0,1,1-8.828,8.828L1.83,54.4a6.237,6.237,0,0,1,0-8.828L23.71,23.7a6.242,6.242,0,1,1,8.828,8.828Z" transform="translate(641 284.008)" fill="#5affd8"/></g><g transform="translate(1322.987 -47.5) rotate(25)"><path d="M103.125,0H9.375A9.377,9.377,0,0,0,0,9.375v62.5A9.377,9.377,0,0,0,9.375,81.25h37.5L43.75,90.625H29.688a4.688,4.688,0,0,0,0,9.375H82.813a4.688,4.688,0,0,0,0-9.375H68.75L65.625,81.25h37.5a9.377,9.377,0,0,0,9.375-9.375V9.375A9.377,9.377,0,0,0,103.125,0ZM100,56.25H12.5V12.5H100Z" transform="translate(25 55)" fill="#5affd8"/></g></g><g transform="translate(-0.139 464.088)"><g transform="translate(-471 -252)"><path d="M81.011,7.96l-25,87.5A6.256,6.256,0,0,1,43.982,92.02l25-87.494A6.255,6.255,0,0,1,81.011,7.96ZM101.284,23.7l21.874,21.874a6.236,6.236,0,0,1,0,8.828L101.284,76.279a6.242,6.242,0,0,1-8.828-8.828L109.9,49.991,92.456,32.531a6.242,6.242,0,0,1,8.828-8.828ZM32.537,32.531l-17.45,17.46,17.45,17.46a6.242,6.242,0,1,1-8.828,8.828L1.83,54.4a6.237,6.237,0,0,1,0-8.828L23.71,23.7a6.242,6.242,0,1,1,8.828,8.828Z" transform="translate(641 284.008)" fill="#5affd8"/></g><g transform="translate(42.987 -47.5) rotate(25)"><path d="M103.125,0H9.375A9.377,9.377,0,0,0,0,9.375v62.5A9.377,9.377,0,0,0,9.375,81.25h37.5L43.75,90.625H29.688a4.688,4.688,0,0,0,0,9.375H82.813a4.688,4.688,0,0,0,0-9.375H68.75L65.625,81.25h37.5a9.377,9.377,0,0,0,9.375-9.375V9.375A9.377,9.377,0,0,0,103.125,0ZM100,56.25H12.5V12.5H100Z" transform="translate(25 55)" fill="#5affd8"/></g><g transform="translate(-151 -252)"><path d="M81.011,7.96l-25,87.5A6.256,6.256,0,0,1,43.982,92.02l25-87.494A6.255,6.255,0,0,1,81.011,7.96ZM101.284,23.7l21.874,21.874a6.236,6.236,0,0,1,0,8.828L101.284,76.279a6.242,6.242,0,0,1-8.828-8.828L109.9,49.991,92.456,32.531a6.242,6.242,0,0,1,8.828-8.828ZM32.537,32.531l-17.45,17.46,17.45,17.46a6.242,6.242,0,1,1-8.828,8.828L1.83,54.4a6.237,6.237,0,0,1,0-8.828L23.71,23.7a6.242,6.242,0,1,1,8.828,8.828Z" transform="translate(641 284.008)" fill="#5affd8"/></g><g transform="translate(274.238 21.175) rotate(-25)"><path d="M103.125,0H9.375A9.377,9.377,0,0,0,0,9.375v62.5A9.377,9.377,0,0,0,9.375,81.25h37.5L43.75,90.625H29.688a4.688,4.688,0,0,0,0,9.375H82.813a4.688,4.688,0,0,0,0-9.375H68.75L65.625,81.25h37.5a9.377,9.377,0,0,0,9.375-9.375V9.375A9.377,9.377,0,0,0,103.125,0ZM100,56.25H12.5V12.5H100Z" transform="translate(25 55)" fill="#5affd8"/></g><g transform="translate(169 -252)"><path d="M81.011,7.96l-25,87.5A6.256,6.256,0,0,1,43.982,92.02l25-87.494A6.255,6.255,0,0,1,81.011,7.96ZM101.284,23.7l21.874,21.874a6.236,6.236,0,0,1,0,8.828L101.284,76.279a6.242,6.242,0,0,1-8.828-8.828L109.9,49.991,92.456,32.531a6.242,6.242,0,0,1,8.828-8.828ZM32.537,32.531l-17.45,17.46,17.45,17.46a6.242,6.242,0,1,1-8.828,8.828L1.83,54.4a6.237,6.237,0,0,1,0-8.828L23.71,23.7a6.242,6.242,0,1,1,8.828,8.828Z" transform="translate(641 284.008)" fill="#5affd8"/></g><g transform="translate(682.987 -47.5) rotate(25)"><path d="M103.125,0H9.375A9.377,9.377,0,0,0,0,9.375v62.5A9.377,9.377,0,0,0,9.375,81.25h37.5L43.75,90.625H29.688a4.688,4.688,0,0,0,0,9.375H82.813a4.688,4.688,0,0,0,0-9.375H68.75L65.625,81.25h37.5a9.377,9.377,0,0,0,9.375-9.375V9.375A9.377,9.377,0,0,0,103.125,0ZM100,56.25H12.5V12.5H100Z" transform="translate(25 55)" fill="#5affd8"/></g><g transform="translate(489 -252)"><path d="M81.011,7.96l-25,87.5A6.256,6.256,0,0,1,43.982,92.02l25-87.494A6.255,6.255,0,0,1,81.011,7.96ZM101.284,23.7l21.874,21.874a6.236,6.236,0,0,1,0,8.828L101.284,76.279a6.242,6.242,0,0,1-8.828-8.828L109.9,49.991,92.456,32.531a6.242,6.242,0,0,1,8.828-8.828ZM32.537,32.531l-17.45,17.46,17.45,17.46a6.242,6.242,0,1,1-8.828,8.828L1.83,54.4a6.237,6.237,0,0,1,0-8.828L23.71,23.7a6.242,6.242,0,1,1,8.828,8.828Z" transform="translate(641 284.008)" fill="#5affd8"/></g><g transform="translate(914.238 21.175) rotate(-25)"><path d="M103.125,0H9.375A9.377,9.377,0,0,0,0,9.375v62.5A9.377,9.377,0,0,0,9.375,81.25h37.5L43.75,90.625H29.688a4.688,4.688,0,0,0,0,9.375H82.813a4.688,4.688,0,0,0,0-9.375H68.75L65.625,81.25h37.5a9.377,9.377,0,0,0,9.375-9.375V9.375A9.377,9.377,0,0,0,103.125,0ZM100,56.25H12.5V12.5H100Z" transform="translate(25 55)" fill="#5affd8"/></g><g transform="translate(809 -252)"><path d="M81.011,7.96l-25,87.5A6.256,6.256,0,0,1,43.982,92.02l25-87.494A6.255,6.255,0,0,1,81.011,7.96ZM101.284,23.7l21.874,21.874a6.236,6.236,0,0,1,0,8.828L101.284,76.279a6.242,6.242,0,0,1-8.828-8.828L109.9,49.991,92.456,32.531a6.242,6.242,0,0,1,8.828-8.828ZM32.537,32.531l-17.45,17.46,17.45,17.46a6.242,6.242,0,1,1-8.828,8.828L1.83,54.4a6.237,6.237,0,0,1,0-8.828L23.71,23.7a6.242,6.242,0,1,1,8.828,8.828Z" transform="translate(641 284.008)" fill="#5affd8"/></g><g transform="translate(1322.987 -47.5) rotate(25)"><path d="M103.125,0H9.375A9.377,9.377,0,0,0,0,9.375v62.5A9.377,9.377,0,0,0,9.375,81.25h37.5L43.75,90.625H29.688a4.688,4.688,0,0,0,0,9.375H82.813a4.688,4.688,0,0,0,0-9.375H68.75L65.625,81.25h37.5a9.377,9.377,0,0,0,9.375-9.375V9.375A9.377,9.377,0,0,0,103.125,0ZM100,56.25H12.5V12.5H100Z" transform="translate(25 55)" fill="#5affd8"/></g></g><g transform="translate(-0.139 623.088)"><g transform="translate(-471 -252)"><path d="M81.011,7.96l-25,87.5A6.256,6.256,0,0,1,43.982,92.02l25-87.494A6.255,6.255,0,0,1,81.011,7.96ZM101.284,23.7l21.874,21.874a6.236,6.236,0,0,1,0,8.828L101.284,76.279a6.242,6.242,0,0,1-8.828-8.828L109.9,49.991,92.456,32.531a6.242,6.242,0,0,1,8.828-8.828ZM32.537,32.531l-17.45,17.46,17.45,17.46a6.242,6.242,0,1,1-8.828,8.828L1.83,54.4a6.237,6.237,0,0,1,0-8.828L23.71,23.7a6.242,6.242,0,1,1,8.828,8.828Z" transform="translate(641 284.008)" fill="#5affd8"/></g><g transform="translate(42.987 -47.5) rotate(25)"><path d="M103.125,0H9.375A9.377,9.377,0,0,0,0,9.375v62.5A9.377,9.377,0,0,0,9.375,81.25h37.5L43.75,90.625H29.688a4.688,4.688,0,0,0,0,9.375H82.813a4.688,4.688,0,0,0,0-9.375H68.75L65.625,81.25h37.5a9.377,9.377,0,0,0,9.375-9.375V9.375A9.377,9.377,0,0,0,103.125,0ZM100,56.25H12.5V12.5H100Z" transform="translate(25 55)" fill="#5affd8"/></g><g transform="translate(-151 -252)"><path d="M81.011,7.96l-25,87.5A6.256,6.256,0,0,1,43.982,92.02l25-87.494A6.255,6.255,0,0,1,81.011,7.96ZM101.284,23.7l21.874,21.874a6.236,6.236,0,0,1,0,8.828L101.284,76.279a6.242,6.242,0,0,1-8.828-8.828L109.9,49.991,92.456,32.531a6.242,6.242,0,0,1,8.828-8.828ZM32.537,32.531l-17.45,17.46,17.45,17.46a6.242,6.242,0,1,1-8.828,8.828L1.83,54.4a6.237,6.237,0,0,1,0-8.828L23.71,23.7a6.242,6.242,0,1,1,8.828,8.828Z" transform="translate(641 284.008)" fill="#5affd8"/></g><g transform="translate(274.238 21.175) rotate(-25)"><path d="M103.125,0H9.375A9.377,9.377,0,0,0,0,9.375v62.5A9.377,9.377,0,0,0,9.375,81.25h37.5L43.75,90.625H29.688a4.688,4.688,0,0,0,0,9.375H82.813a4.688,4.688,0,0,0,0-9.375H68.75L65.625,81.25h37.5a9.377,9.377,0,0,0,9.375-9.375V9.375A9.377,9.377,0,0,0,103.125,0ZM100,56.25H12.5V12.5H100Z" transform="translate(25 55)" fill="#5affd8"/></g><g transform="translate(169 -252)"><path d="M81.011,7.96l-25,87.5A6.256,6.256,0,0,1,43.982,92.02l25-87.494A6.255,6.255,0,0,1,81.011,7.96ZM101.284,23.7l21.874,21.874a6.236,6.236,0,0,1,0,8.828L101.284,76.279a6.242,6.242,0,0,1-8.828-8.828L109.9,49.991,92.456,32.531a6.242,6.242,0,0,1,8.828-8.828ZM32.537,32.531l-17.45,17.46,17.45,17.46a6.242,6.242,0,1,1-8.828,8.828L1.83,54.4a6.237,6.237,0,0,1,0-8.828L23.71,23.7a6.242,6.242,0,1,1,8.828,8.828Z" transform="translate(641 284.008)" fill="#5affd8"/></g><g transform="translate(682.987 -47.5) rotate(25)"><path d="M103.125,0H9.375A9.377,9.377,0,0,0,0,9.375v62.5A9.377,9.377,0,0,0,9.375,81.25h37.5L43.75,90.625H29.688a4.688,4.688,0,0,0,0,9.375H82.813a4.688,4.688,0,0,0,0-9.375H68.75L65.625,81.25h37.5a9.377,9.377,0,0,0,9.375-9.375V9.375A9.377,9.377,0,0,0,103.125,0ZM100,56.25H12.5V12.5H100Z" transform="translate(25 55)" fill="#5affd8"/></g><g transform="translate(489 -252)"><path d="M81.011,7.96l-25,87.5A6.256,6.256,0,0,1,43.982,92.02l25-87.494A6.255,6.255,0,0,1,81.011,7.96ZM101.284,23.7l21.874,21.874a6.236,6.236,0,0,1,0,8.828L101.284,76.279a6.242,6.242,0,0,1-8.828-8.828L109.9,49.991,92.456,32.531a6.242,6.242,0,0,1,8.828-8.828ZM32.537,32.531l-17.45,17.46,17.45,17.46a6.242,6.242,0,1,1-8.828,8.828L1.83,54.4a6.237,6.237,0,0,1,0-8.828L23.71,23.7a6.242,6.242,0,1,1,8.828,8.828Z" transform="translate(641 284.008)" fill="#5affd8"/></g><g transform="translate(914.238 21.175) rotate(-25)"><path d="M103.125,0H9.375A9.377,9.377,0,0,0,0,9.375v62.5A9.377,9.377,0,0,0,9.375,81.25h37.5L43.75,90.625H29.688a4.688,4.688,0,0,0,0,9.375H82.813a4.688,4.688,0,0,0,0-9.375H68.75L65.625,81.25h37.5a9.377,9.377,0,0,0,9.375-9.375V9.375A9.377,9.377,0,0,0,103.125,0ZM100,56.25H12.5V12.5H100Z" transform="translate(25 55)" fill="#5affd8"/></g><g transform="translate(809 -252)"><path d="M81.011,7.96l-25,87.5A6.256,6.256,0,0,1,43.982,92.02l25-87.494A6.255,6.255,0,0,1,81.011,7.96ZM101.284,23.7l21.874,21.874a6.236,6.236,0,0,1,0,8.828L101.284,76.279a6.242,6.242,0,0,1-8.828-8.828L109.9,49.991,92.456,32.531a6.242,6.242,0,0,1,8.828-8.828ZM32.537,32.531l-17.45,17.46,17.45,17.46a6.242,6.242,0,1,1-8.828,8.828L1.83,54.4a6.237,6.237,0,0,1,0-8.828L23.71,23.7a6.242,6.242,0,1,1,8.828,8.828Z" transform="translate(641 284.008)" fill="#5affd8"/></g><g transform="translate(1322.987 -47.5) rotate(25)"><path d="M103.125,0H9.375A9.377,9.377,0,0,0,0,9.375v62.5A9.377,9.377,0,0,0,9.375,81.25h37.5L43.75,90.625H29.688a4.688,4.688,0,0,0,0,9.375H82.813a4.688,4.688,0,0,0,0-9.375H68.75L65.625,81.25h37.5a9.377,9.377,0,0,0,9.375-9.375V9.375A9.377,9.377,0,0,0,103.125,0ZM100,56.25H12.5V12.5H100Z" transform="translate(25 55)" fill="#5affd8"/></g></g><g transform="translate(-0.139 782.088)"><g transform="translate(-471 -252)"><path d="M81.011,7.96l-25,87.5A6.256,6.256,0,0,1,43.982,92.02l25-87.494A6.255,6.255,0,0,1,81.011,7.96ZM101.284,23.7l21.874,21.874a6.236,6.236,0,0,1,0,8.828L101.284,76.279a6.242,6.242,0,0,1-8.828-8.828L109.9,49.991,92.456,32.531a6.242,6.242,0,0,1,8.828-8.828ZM32.537,32.531l-17.45,17.46,17.45,17.46a6.242,6.242,0,1,1-8.828,8.828L1.83,54.4a6.237,6.237,0,0,1,0-8.828L23.71,23.7a6.242,6.242,0,1,1,8.828,8.828Z" transform="translate(641 284.008)" fill="#5affd8"/></g><g transform="translate(42.987 -47.5) rotate(25)"><path d="M103.125,0H9.375A9.377,9.377,0,0,0,0,9.375v62.5A9.377,9.377,0,0,0,9.375,81.25h37.5L43.75,90.625H29.688a4.688,4.688,0,0,0,0,9.375H82.813a4.688,4.688,0,0,0,0-9.375H68.75L65.625,81.25h37.5a9.377,9.377,0,0,0,9.375-9.375V9.375A9.377,9.377,0,0,0,103.125,0ZM100,56.25H12.5V12.5H100Z" transform="translate(25 55)" fill="#5affd8"/></g><g transform="translate(-151 -252)"><path d="M81.011,7.96l-25,87.5A6.256,6.256,0,0,1,43.982,92.02l25-87.494A6.255,6.255,0,0,1,81.011,7.96ZM101.284,23.7l21.874,21.874a6.236,6.236,0,0,1,0,8.828L101.284,76.279a6.242,6.242,0,0,1-8.828-8.828L109.9,49.991,92.456,32.531a6.242,6.242,0,0,1,8.828-8.828ZM32.537,32.531l-17.45,17.46,17.45,17.46a6.242,6.242,0,1,1-8.828,8.828L1.83,54.4a6.237,6.237,0,0,1,0-8.828L23.71,23.7a6.242,6.242,0,1,1,8.828,8.828Z" transform="translate(641 284.008)" fill="#5affd8"/></g><g transform="translate(274.238 21.175) rotate(-25)"><path d="M103.125,0H9.375A9.377,9.377,0,0,0,0,9.375v62.5A9.377,9.377,0,0,0,9.375,81.25h37.5L43.75,90.625H29.688a4.688,4.688,0,0,0,0,9.375H82.813a4.688,4.688,0,0,0,0-9.375H68.75L65.625,81.25h37.5a9.377,9.377,0,0,0,9.375-9.375V9.375A9.377,9.377,0,0,0,103.125,0ZM100,56.25H12.5V12.5H100Z" transform="translate(25 55)" fill="#5affd8"/></g><g transform="translate(169 -252)"><path d="M81.011,7.96l-25,87.5A6.256,6.256,0,0,1,43.982,92.02l25-87.494A6.255,6.255,0,0,1,81.011,7.96ZM101.284,23.7l21.874,21.874a6.236,6.236,0,0,1,0,8.828L101.284,76.279a6.242,6.242,0,0,1-8.828-8.828L109.9,49.991,92.456,32.531a6.242,6.242,0,0,1,8.828-8.828ZM32.537,32.531l-17.45,17.46,17.45,17.46a6.242,6.242,0,1,1-8.828,8.828L1.83,54.4a6.237,6.237,0,0,1,0-8.828L23.71,23.7a6.242,6.242,0,1,1,8.828,8.828Z" transform="translate(641 284.008)" fill="#5affd8"/></g><g transform="translate(682.987 -47.5) rotate(25)"><path d="M103.125,0H9.375A9.377,9.377,0,0,0,0,9.375v62.5A9.377,9.377,0,0,0,9.375,81.25h37.5L43.75,90.625H29.688a4.688,4.688,0,0,0,0,9.375H82.813a4.688,4.688,0,0,0,0-9.375H68.75L65.625,81.25h37.5a9.377,9.377,0,0,0,9.375-9.375V9.375A9.377,9.377,0,0,0,103.125,0ZM100,56.25H12.5V12.5H100Z" transform="translate(25 55)" fill="#5affd8"/></g><g transform="translate(489 -252)"><path d="M81.011,7.96l-25,87.5A6.256,6.256,0,0,1,43.982,92.02l25-87.494A6.255,6.255,0,0,1,81.011,7.96ZM101.284,23.7l21.874,21.874a6.236,6.236,0,0,1,0,8.828L101.284,76.279a6.242,6.242,0,0,1-8.828-8.828L109.9,49.991,92.456,32.531a6.242,6.242,0,0,1,8.828-8.828ZM32.537,32.531l-17.45,17.46,17.45,17.46a6.242,6.242,0,1,1-8.828,8.828L1.83,54.4a6.237,6.237,0,0,1,0-8.828L23.71,23.7a6.242,6.242,0,1,1,8.828,8.828Z" transform="translate(641 284.008)" fill="#5affd8"/></g><g transform="translate(914.238 21.175) rotate(-25)"><path d="M103.125,0H9.375A9.377,9.377,0,0,0,0,9.375v62.5A9.377,9.377,0,0,0,9.375,81.25h37.5L43.75,90.625H29.688a4.688,4.688,0,0,0,0,9.375H82.813a4.688,4.688,0,0,0,0-9.375H68.75L65.625,81.25h37.5a9.377,9.377,0,0,0,9.375-9.375V9.375A9.377,9.377,0,0,0,103.125,0ZM100,56.25H12.5V12.5H100Z" transform="translate(25 55)" fill="#5affd8"/></g><g transform="translate(809 -252)"><path d="M81.011,7.96l-25,87.5A6.256,6.256,0,0,1,43.982,92.02l25-87.494A6.255,6.255,0,0,1,81.011,7.96ZM101.284,23.7l21.874,21.874a6.236,6.236,0,0,1,0,8.828L101.284,76.279a6.242,6.242,0,0,1-8.828-8.828L109.9,49.991,92.456,32.531a6.242,6.242,0,0,1,8.828-8.828ZM32.537,32.531l-17.45,17.46,17.45,17.46a6.242,6.242,0,1,1-8.828,8.828L1.83,54.4a6.237,6.237,0,0,1,0-8.828L23.71,23.7a6.242,6.242,0,1,1,8.828,8.828Z" transform="translate(641 284.008)" fill="#5affd8"/></g><g transform="translate(1322.987 -47.5) rotate(25)"><path d="M103.125,0H9.375A9.377,9.377,0,0,0,0,9.375v62.5A9.377,9.377,0,0,0,9.375,81.25h37.5L43.75,90.625H29.688a4.688,4.688,0,0,0,0,9.375H82.813a4.688,4.688,0,0,0,0-9.375H68.75L65.625,81.25h37.5a9.377,9.377,0,0,0,9.375-9.375V9.375A9.377,9.377,0,0,0,103.125,0ZM100,56.25H12.5V12.5H100Z" transform="translate(25 55)" fill="#5affd8"/></g></g></g></svg>