<svg xmlns="http://www.w3.org/2000/svg" width="55.853" height="41.866" viewBox="0 0 55.853 41.866"><path d="M47.965,24.281A11.507,11.507,0,0,0,42.9,25.46a10.412,10.412,0,0,1-1.134-2.618,7.242,7.242,0,0,1-.1-2.2,17.659,17.659,0,0,1,.665-2.378c-.011-.1-.12-.578-1.244-.589s-2.095.218-2.2.513a12.531,12.531,0,0,0-.469,1.669c-.2,1.026-2.247,4.658-3.415,6.568a6.7,6.7,0,0,1-.775-1.92,7.241,7.241,0,0,1-.1-2.2,17.668,17.668,0,0,1,.665-2.378c-.011-.1-.12-.578-1.244-.589s-2.095.218-2.2.513-.229.993-.469,1.669-2.957,6.742-3.666,8.324c-.36.807-.676,1.451-.906,1.887s-.011.033-.033.076l-.305.578v.011c-.153.273-.316.534-.393.534a3.638,3.638,0,0,1,.022-1.735c.4-2.106,1.386-5.389,1.375-5.509,0-.055.185-.633-.633-.927a.994.994,0,0,0-1.146.2c-.065,0-.12.175-.12.175s.884-3.7-1.691-3.7c-1.615,0-3.84,1.756-4.942,3.36-.7.382-2.182,1.189-3.753,2.051-.6.327-1.222.676-1.811.993l-.12-.131c-3.12-3.327-8.891-5.684-8.651-10.157.087-1.626.655-5.913,11.084-11.106,8.542-4.255,15.383-3.087,16.572-.491,1.691,3.709-3.655,10.6-12.535,11.6-3.382.382-5.16-.927-5.608-1.418-.469-.513-.535-.535-.709-.436-.284.153-.109.611,0,.884a5.266,5.266,0,0,0,3.207,2.52c1.625.535,5.6.829,10.4-1.026C31.9,15.979,36.1,10.2,34.863,5.364c-1.255-4.92-9.415-6.535-17.128-3.8A38.829,38.829,0,0,0,4.588,9.106C.333,13.077-.343,16.546-.059,17.986c.993,5.138,8.073,8.488,10.91,10.964-.142.076-.273.153-.393.218-1.418.7-6.819,3.524-8.171,6.513C.759,39.064,2.526,41.5,3.7,41.824A8.718,8.718,0,0,0,13.1,38.017a9.421,9.421,0,0,0,.84-8.673l-.033-.065,1.113-.655c.72-.425,1.429-.818,2.051-1.157a13.583,13.583,0,0,0-.731,3.709,7.735,7.735,0,0,0,1.669,5.389A1.847,1.847,0,0,0,19.349,37c1.2,0,1.746-.993,2.346-2.182.742-1.451,1.4-3.131,1.4-3.131s-.818,4.549,1.418,4.549c.818,0,1.636-1.058,2.007-1.6v.011s.022-.033.065-.109.089-.137.131-.207v-.022c.327-.567,1.058-1.866,2.149-4.015,1.407-2.771,2.76-6.24,2.76-6.24a19.912,19.912,0,0,0,.535,2.247,21.505,21.505,0,0,0,1.167,2.618c-.327.458-.524.72-.524.72l.011.011c-.262.349-.556.72-.862,1.091a31.707,31.707,0,0,0-2.618,3.284.9.9,0,0,0,.24,1.2,2.184,2.184,0,0,0,1.375.218A6.123,6.123,0,0,0,33,34.973a7.1,7.1,0,0,0,1.767-.927,3.935,3.935,0,0,0,1.691-3.48,7,7,0,0,0-.644-2.455c.1-.142.2-.284.295-.436a46.053,46.053,0,0,0,3.055-5.291,19.912,19.912,0,0,0,.535,2.247,15.755,15.755,0,0,0,.993,2.248,9.7,9.7,0,0,0-2.978,3.851c-.644,1.855-.142,2.695.807,2.891a2.9,2.9,0,0,0,1.495-.305,6.773,6.773,0,0,0,1.887-.971A4.268,4.268,0,0,0,43.983,28.9a6.609,6.609,0,0,0-.469-2.04,10.629,10.629,0,0,1,5.411-.622c4.855.567,5.815,3.6,5.63,4.866a3.259,3.259,0,0,1-1.538,2.182c-.338.207-.447.284-.415.436.044.229.2.218.491.175a3.776,3.776,0,0,0,2.64-3.371c.131-3-2.717-6.274-7.768-6.241ZM10.523,36.9c-1.6,1.756-3.862,2.422-4.822,1.855-1.036-.6-.633-3.186,1.342-5.051a25.67,25.67,0,0,1,3.786-2.826c.229-.142.578-.349.993-.6a1.164,1.164,0,0,1,.109-.065c.076-.044.164-.1.251-.153a6.959,6.959,0,0,1-1.658,6.84Zm11.728-7.975c-.556,1.364-1.735,4.866-2.444,4.669-.611-.164-.982-2.815-.12-5.433a12.129,12.129,0,0,1,1.909-3.5c.884-.982,1.844-1.309,2.084-.906C23.964,24.281,22.6,28.078,22.251,28.929Zm9.677,4.626c-.24.12-.458.207-.556.142-.076-.044.1-.207.1-.207s1.211-1.3,1.691-1.9c.273-.349.6-.753.949-1.211v.131c0,1.571-1.505,2.618-2.182,3.044Zm7.462-1.7c-.175-.131-.153-.535.436-1.8a6.745,6.745,0,0,1,1.658-2.138,2.7,2.7,0,0,1,.164.938A3.07,3.07,0,0,1,39.39,31.853Z" transform="translate(0.116 -0.241)" fill="#cf649a"/></svg>