<svg xmlns="http://www.w3.org/2000/svg" width="221.389" height="83.288" viewBox="0 0 221.389 83.288"><g transform="translate(0)"><path d="M34.392,19.873l-17.2-9.936L0,19.873V9.936L17.2,0l17.2,9.936v9.936Z" transform="translate(0)" fill="#a435f0"/><path d="M9.01,64.395V86.3A8.013,8.013,0,0,0,17.2,94.713a8.06,8.06,0,0,0,8.19-8.492V64.395h9.007V86.819c0,5.213-1.638,9.234-4.912,11.992s-7.371,4.1-12.363,4.1-9.081-1.339-12.28-4.1S0,92.184,0,87.04V64.395ZM112.273,91.614l6.691,3.866a20.954,20.954,0,0,1-16.364,7.355c-5.883,0-10.722-1.788-14.369-5.288s-5.506-8.2-5.506-14.084v-.293c0-5.963,1.859-10.731,5.506-14.38a19.318,19.318,0,0,1,14.148-5.437A17.438,17.438,0,0,1,115.7,68.789a18.668,18.668,0,0,1,5.213,13.487c0,1.729-.2,3.569-.2,3.569h-29.1c.49,5.706,4.823,9.391,11.284,9.391A13.629,13.629,0,0,0,112.273,91.614ZM95.156,73.335a8.186,8.186,0,0,0-3.312,5.512h19.978A7.331,7.331,0,0,0,109,73.41a9.613,9.613,0,0,0-6.627-2.46,11.539,11.539,0,0,0-7.222,2.382Zm107.8,34.56c-3.653,8.636-7.477,11.572-13.34,11.572h-4.065v-7.991h3.287c2.017,0,3.89-.758,5.678-4.884l1.788-4.131L180.888,64.395h9.159L200.99,91.811l11.243-27.416h9.156l-18.434,43.5ZM69.464,50.02H78.4v51.921H69.464V98.485a17.25,17.25,0,0,1-11.987,4.275,18.025,18.025,0,0,1-13.4-5.589,19.583,19.583,0,0,1-5.36-14.007,19.291,19.291,0,0,1,5.36-13.932,17.829,17.829,0,0,1,13.4-5.659A18.537,18.537,0,0,1,69.464,67.8Zm.672,33.149a10.954,10.954,0,0,0-3.354-8.2,11.108,11.108,0,0,0-8.116-3.279A10.769,10.769,0,0,0,50.7,74.973a12.3,12.3,0,0,0,0,16.389,10.769,10.769,0,0,0,7.964,3.279,11.108,11.108,0,0,0,8.116-3.279A10.961,10.961,0,0,0,70.136,83.169ZM167,63.653c7.77,0,13.03,5.255,13.03,15.044v23.243H171.1V79.962c0-5.138-2.457-8.343-6.7-8.343-4.391,0-7.441,3.578-7.441,8.716v21.608h-8.86V79.968c0-5.141-2.454-8.345-6.7-8.345-4.164,0-7.294,3.65-7.294,8.716v21.605H125.24V64.4H134.1v3.9a12.647,12.647,0,0,1,10.125-4.654c6.359,0,9.081,3.686,10.047,5.531,2.418-2.714,5.944-5.531,12.731-5.531Z" transform="translate(0 -36.179)"/></g></svg>